<mxfile host="app.diagrams.net" agent="Mozilla/5.0 (Windows NT 10.0; Win64; x64) AppleWebKit/537.36 (KHTML, like Gecko) Chrome/129.0.0.0 Safari/537.36" version="24.7.17" pages="9">
  <diagram name="會員註冊" id="Qb9RMnF9-9DeNjRWGWv_">
    <mxGraphModel grid="1" page="1" gridSize="10" guides="1" tooltips="1" connect="1" arrows="1" fold="1" pageScale="1" pageWidth="827" pageHeight="1169" math="0" shadow="0">
      <root>
        <mxCell id="0" />
        <mxCell id="1" parent="0" />
        <mxCell id="LHocri3M3M4aiW2htl_b-1" style="edgeStyle=orthogonalEdgeStyle;rounded=0;orthogonalLoop=1;jettySize=auto;html=1;entryX=0.5;entryY=0;entryDx=0;entryDy=0;" edge="1" parent="1" source="LHocri3M3M4aiW2htl_b-2" target="LHocri3M3M4aiW2htl_b-22">
          <mxGeometry relative="1" as="geometry" />
        </mxCell>
        <mxCell id="LHocri3M3M4aiW2htl_b-2" value="進入登入頁面" style="rounded=1;whiteSpace=wrap;html=1;" vertex="1" parent="1">
          <mxGeometry x="-3030" y="404.5" width="120" height="31" as="geometry" />
        </mxCell>
        <mxCell id="LHocri3M3M4aiW2htl_b-3" style="edgeStyle=orthogonalEdgeStyle;rounded=0;orthogonalLoop=1;jettySize=auto;html=1;exitX=0.5;exitY=1;exitDx=0;exitDy=0;" edge="1" parent="1" source="LHocri3M3M4aiW2htl_b-4" target="LHocri3M3M4aiW2htl_b-2">
          <mxGeometry relative="1" as="geometry" />
        </mxCell>
        <mxCell id="LHocri3M3M4aiW2htl_b-4" value="" style="ellipse;whiteSpace=wrap;html=1;aspect=fixed;fillColor=#000000;" vertex="1" parent="1">
          <mxGeometry x="-2980" y="365" width="20" height="20" as="geometry" />
        </mxCell>
        <mxCell id="LHocri3M3M4aiW2htl_b-5" value="" style="ellipse;html=1;shape=endState;fillColor=#000000;strokeColor=#000000;" vertex="1" parent="1">
          <mxGeometry x="-2985" y="774.5" width="30" height="30" as="geometry" />
        </mxCell>
        <mxCell id="LHocri3M3M4aiW2htl_b-6" style="edgeStyle=orthogonalEdgeStyle;rounded=0;orthogonalLoop=1;jettySize=auto;html=1;" edge="1" parent="1" source="LHocri3M3M4aiW2htl_b-7" target="LHocri3M3M4aiW2htl_b-8">
          <mxGeometry relative="1" as="geometry" />
        </mxCell>
        <mxCell id="LHocri3M3M4aiW2htl_b-7" value="輸入會員資料" style="rounded=1;whiteSpace=wrap;html=1;" vertex="1" parent="1">
          <mxGeometry x="-3030" y="525" width="120" height="31" as="geometry" />
        </mxCell>
        <mxCell id="LHocri3M3M4aiW2htl_b-8" value="驗證會員資料" style="rounded=1;whiteSpace=wrap;html=1;" vertex="1" parent="1">
          <mxGeometry x="-3030" y="591.5" width="120" height="31" as="geometry" />
        </mxCell>
        <mxCell id="LHocri3M3M4aiW2htl_b-9" style="edgeStyle=orthogonalEdgeStyle;rounded=0;orthogonalLoop=1;jettySize=auto;html=1;entryX=0.5;entryY=0;entryDx=0;entryDy=0;" edge="1" parent="1" source="LHocri3M3M4aiW2htl_b-10" target="LHocri3M3M4aiW2htl_b-20">
          <mxGeometry relative="1" as="geometry" />
        </mxCell>
        <mxCell id="LHocri3M3M4aiW2htl_b-10" value="提示註冊成功" style="rounded=1;whiteSpace=wrap;html=1;" vertex="1" parent="1">
          <mxGeometry x="-2878" y="647" width="120" height="31" as="geometry" />
        </mxCell>
        <mxCell id="LHocri3M3M4aiW2htl_b-11" value="" style="edgeStyle=orthogonalEdgeStyle;rounded=0;orthogonalLoop=1;jettySize=auto;html=1;" edge="1" parent="1">
          <mxGeometry relative="1" as="geometry">
            <mxPoint x="-2970" y="624.5" as="sourcePoint" />
            <mxPoint x="-2970" y="653.5" as="targetPoint" />
          </mxGeometry>
        </mxCell>
        <mxCell id="LHocri3M3M4aiW2htl_b-12" style="edgeStyle=orthogonalEdgeStyle;rounded=0;orthogonalLoop=1;jettySize=auto;html=1;entryX=0.5;entryY=0;entryDx=0;entryDy=0;" edge="1" parent="1" source="LHocri3M3M4aiW2htl_b-16" target="LHocri3M3M4aiW2htl_b-18">
          <mxGeometry relative="1" as="geometry">
            <mxPoint x="-2970" y="720.5" as="targetPoint" />
          </mxGeometry>
        </mxCell>
        <mxCell id="LHocri3M3M4aiW2htl_b-13" value="[失敗]" style="edgeLabel;html=1;align=center;verticalAlign=middle;resizable=0;points=[];" connectable="0" vertex="1" parent="LHocri3M3M4aiW2htl_b-12">
          <mxGeometry x="-0.3925" y="1" relative="1" as="geometry">
            <mxPoint x="-1" y="4" as="offset" />
          </mxGeometry>
        </mxCell>
        <mxCell id="LHocri3M3M4aiW2htl_b-14" value="" style="edgeStyle=orthogonalEdgeStyle;rounded=0;orthogonalLoop=1;jettySize=auto;html=1;" edge="1" parent="1" source="LHocri3M3M4aiW2htl_b-16" target="LHocri3M3M4aiW2htl_b-10">
          <mxGeometry relative="1" as="geometry" />
        </mxCell>
        <mxCell id="LHocri3M3M4aiW2htl_b-15" value="[成功]" style="edgeLabel;html=1;align=center;verticalAlign=middle;resizable=0;points=[];" connectable="0" vertex="1" parent="LHocri3M3M4aiW2htl_b-14">
          <mxGeometry x="-0.3489" y="-4" relative="1" as="geometry">
            <mxPoint y="-4" as="offset" />
          </mxGeometry>
        </mxCell>
        <mxCell id="LHocri3M3M4aiW2htl_b-16" value="" style="rhombus;whiteSpace=wrap;html=1;" vertex="1" parent="1">
          <mxGeometry x="-2985" y="653.5" width="30" height="18" as="geometry" />
        </mxCell>
        <mxCell id="LHocri3M3M4aiW2htl_b-17" style="edgeStyle=orthogonalEdgeStyle;rounded=0;orthogonalLoop=1;jettySize=auto;html=1;entryX=0.5;entryY=0;entryDx=0;entryDy=0;" edge="1" parent="1" source="LHocri3M3M4aiW2htl_b-18" target="LHocri3M3M4aiW2htl_b-5">
          <mxGeometry relative="1" as="geometry" />
        </mxCell>
        <mxCell id="LHocri3M3M4aiW2htl_b-18" value="提示資料驗證失敗" style="rounded=1;whiteSpace=wrap;html=1;" vertex="1" parent="1">
          <mxGeometry x="-3030" y="714.5" width="120" height="31" as="geometry" />
        </mxCell>
        <mxCell id="LHocri3M3M4aiW2htl_b-19" style="edgeStyle=orthogonalEdgeStyle;rounded=0;orthogonalLoop=1;jettySize=auto;html=1;entryX=1;entryY=0.5;entryDx=0;entryDy=0;" edge="1" parent="1" source="LHocri3M3M4aiW2htl_b-20" target="LHocri3M3M4aiW2htl_b-5">
          <mxGeometry relative="1" as="geometry">
            <Array as="points">
              <mxPoint x="-2818" y="789" />
            </Array>
          </mxGeometry>
        </mxCell>
        <mxCell id="LHocri3M3M4aiW2htl_b-20" value="返回登入畫面" style="rounded=1;whiteSpace=wrap;html=1;" vertex="1" parent="1">
          <mxGeometry x="-2878" y="714.5" width="120" height="31" as="geometry" />
        </mxCell>
        <mxCell id="LHocri3M3M4aiW2htl_b-21" style="edgeStyle=orthogonalEdgeStyle;rounded=0;orthogonalLoop=1;jettySize=auto;html=1;entryX=0.5;entryY=0;entryDx=0;entryDy=0;" edge="1" parent="1" source="LHocri3M3M4aiW2htl_b-22" target="LHocri3M3M4aiW2htl_b-7">
          <mxGeometry relative="1" as="geometry" />
        </mxCell>
        <mxCell id="LHocri3M3M4aiW2htl_b-22" value="點擊註冊帳號" style="rounded=1;whiteSpace=wrap;html=1;" vertex="1" parent="1">
          <mxGeometry x="-3030" y="465" width="120" height="31" as="geometry" />
        </mxCell>
        <mxCell id="LHocri3M3M4aiW2htl_b-23" value="&lt;div&gt;&lt;span style=&quot;background-color: initial;&quot;&gt;信箱(帳號)&lt;/span&gt;&lt;br&gt;&lt;/div&gt;&lt;div&gt;使用者名稱&lt;br&gt;&lt;/div&gt;&lt;div&gt;密碼&lt;/div&gt;" style="shape=note2;boundedLbl=1;whiteSpace=wrap;html=1;size=18;verticalAlign=top;align=center;" vertex="1" parent="1">
          <mxGeometry x="-2878" y="500.5" width="120" height="80" as="geometry" />
        </mxCell>
        <mxCell id="LHocri3M3M4aiW2htl_b-24" style="edgeStyle=orthogonalEdgeStyle;rounded=0;orthogonalLoop=1;jettySize=auto;html=1;entryX=0;entryY=0.5;entryDx=0;entryDy=0;entryPerimeter=0;endArrow=none;endFill=0;dashed=1;" edge="1" parent="1" source="LHocri3M3M4aiW2htl_b-7" target="LHocri3M3M4aiW2htl_b-23">
          <mxGeometry relative="1" as="geometry" />
        </mxCell>
      </root>
    </mxGraphModel>
  </diagram>
  <diagram id="aJLUrryFDMRmSjn2erD2" name="會員登入">
    <mxGraphModel grid="1" page="1" gridSize="10" guides="1" tooltips="1" connect="1" arrows="1" fold="1" pageScale="1" pageWidth="827" pageHeight="1169" math="0" shadow="0">
      <root>
        <mxCell id="0" />
        <mxCell id="1" parent="0" />
        <mxCell id="U9Abu0mCQiCuqe7JllOW-1" value="" style="edgeStyle=orthogonalEdgeStyle;rounded=0;orthogonalLoop=1;jettySize=auto;html=1;" edge="1" parent="1" source="U9Abu0mCQiCuqe7JllOW-2">
          <mxGeometry relative="1" as="geometry">
            <mxPoint x="-3092" y="179.5" as="targetPoint" />
          </mxGeometry>
        </mxCell>
        <mxCell id="U9Abu0mCQiCuqe7JllOW-2" value="進入登入頁面" style="rounded=1;whiteSpace=wrap;html=1;" vertex="1" parent="1">
          <mxGeometry x="-3152" y="119.5" width="120" height="31" as="geometry" />
        </mxCell>
        <mxCell id="U9Abu0mCQiCuqe7JllOW-3" style="edgeStyle=orthogonalEdgeStyle;rounded=0;orthogonalLoop=1;jettySize=auto;html=1;exitX=0.5;exitY=1;exitDx=0;exitDy=0;" edge="1" parent="1" source="U9Abu0mCQiCuqe7JllOW-4" target="U9Abu0mCQiCuqe7JllOW-2">
          <mxGeometry relative="1" as="geometry" />
        </mxCell>
        <mxCell id="U9Abu0mCQiCuqe7JllOW-4" value="" style="ellipse;whiteSpace=wrap;html=1;aspect=fixed;fillColor=#000000;" vertex="1" parent="1">
          <mxGeometry x="-3102" y="80" width="20" height="20" as="geometry" />
        </mxCell>
        <mxCell id="U9Abu0mCQiCuqe7JllOW-5" value="" style="ellipse;html=1;shape=endState;fillColor=#000000;strokeColor=#000000;" vertex="1" parent="1">
          <mxGeometry x="-3107" y="489.5" width="30" height="30" as="geometry" />
        </mxCell>
        <mxCell id="U9Abu0mCQiCuqe7JllOW-6" style="edgeStyle=orthogonalEdgeStyle;rounded=0;orthogonalLoop=1;jettySize=auto;html=1;" edge="1" parent="1" source="U9Abu0mCQiCuqe7JllOW-7" target="U9Abu0mCQiCuqe7JllOW-8">
          <mxGeometry relative="1" as="geometry" />
        </mxCell>
        <mxCell id="U9Abu0mCQiCuqe7JllOW-7" value="輸入註冊時的帳號" style="rounded=1;whiteSpace=wrap;html=1;" vertex="1" parent="1">
          <mxGeometry x="-3152" y="246.5" width="120" height="31" as="geometry" />
        </mxCell>
        <mxCell id="U9Abu0mCQiCuqe7JllOW-8" value="驗證身份" style="rounded=1;whiteSpace=wrap;html=1;" vertex="1" parent="1">
          <mxGeometry x="-3152" y="306.5" width="120" height="31" as="geometry" />
        </mxCell>
        <mxCell id="U9Abu0mCQiCuqe7JllOW-9" style="edgeStyle=orthogonalEdgeStyle;rounded=0;orthogonalLoop=1;jettySize=auto;html=1;" edge="1" parent="1" source="U9Abu0mCQiCuqe7JllOW-13">
          <mxGeometry relative="1" as="geometry">
            <mxPoint x="-3092" y="246.5" as="targetPoint" />
          </mxGeometry>
        </mxCell>
        <mxCell id="U9Abu0mCQiCuqe7JllOW-10" value="選擇忘記密碼" style="edgeLabel;html=1;align=center;verticalAlign=middle;resizable=0;points=[];" connectable="0" vertex="1" parent="U9Abu0mCQiCuqe7JllOW-9">
          <mxGeometry x="-0.3925" y="1" relative="1" as="geometry">
            <mxPoint x="-1" y="4" as="offset" />
          </mxGeometry>
        </mxCell>
        <mxCell id="U9Abu0mCQiCuqe7JllOW-11" style="edgeStyle=orthogonalEdgeStyle;rounded=0;orthogonalLoop=1;jettySize=auto;html=1;entryX=0;entryY=0.5;entryDx=0;entryDy=0;exitX=1;exitY=0.5;exitDx=0;exitDy=0;" edge="1" parent="1" source="U9Abu0mCQiCuqe7JllOW-13">
          <mxGeometry relative="1" as="geometry">
            <mxPoint x="-2950" y="188.21" as="targetPoint" />
            <mxPoint x="-3035.8333333333335" y="188.21" as="sourcePoint" />
          </mxGeometry>
        </mxCell>
        <mxCell id="U9Abu0mCQiCuqe7JllOW-12" value="選擇登入" style="edgeLabel;html=1;align=center;verticalAlign=middle;resizable=0;points=[];" connectable="0" vertex="1" parent="U9Abu0mCQiCuqe7JllOW-11">
          <mxGeometry x="-0.2047" y="-1" relative="1" as="geometry">
            <mxPoint x="-23" y="-1" as="offset" />
          </mxGeometry>
        </mxCell>
        <mxCell id="U9Abu0mCQiCuqe7JllOW-13" value="" style="rhombus;whiteSpace=wrap;html=1;" vertex="1" parent="1">
          <mxGeometry x="-3107" y="179.5" width="30" height="18" as="geometry" />
        </mxCell>
        <mxCell id="U9Abu0mCQiCuqe7JllOW-14" value="驗證帳號密碼" style="rounded=1;whiteSpace=wrap;html=1;" vertex="1" parent="1">
          <mxGeometry x="-2832" y="250" width="120" height="31" as="geometry" />
        </mxCell>
        <mxCell id="U9Abu0mCQiCuqe7JllOW-15" value="" style="edgeStyle=orthogonalEdgeStyle;rounded=0;orthogonalLoop=1;jettySize=auto;html=1;" edge="1" parent="1">
          <mxGeometry relative="1" as="geometry">
            <mxPoint x="-3092" y="339.5" as="sourcePoint" />
            <mxPoint x="-3092" y="368.5" as="targetPoint" />
          </mxGeometry>
        </mxCell>
        <mxCell id="U9Abu0mCQiCuqe7JllOW-16" style="edgeStyle=orthogonalEdgeStyle;rounded=0;orthogonalLoop=1;jettySize=auto;html=1;entryX=0.5;entryY=0;entryDx=0;entryDy=0;" edge="1" parent="1" source="U9Abu0mCQiCuqe7JllOW-20" target="U9Abu0mCQiCuqe7JllOW-22">
          <mxGeometry relative="1" as="geometry">
            <mxPoint x="-3092" y="435.5" as="targetPoint" />
          </mxGeometry>
        </mxCell>
        <mxCell id="U9Abu0mCQiCuqe7JllOW-17" value="[失敗]" style="edgeLabel;html=1;align=center;verticalAlign=middle;resizable=0;points=[];" connectable="0" vertex="1" parent="U9Abu0mCQiCuqe7JllOW-16">
          <mxGeometry x="-0.3925" y="1" relative="1" as="geometry">
            <mxPoint x="-1" y="4" as="offset" />
          </mxGeometry>
        </mxCell>
        <mxCell id="U9Abu0mCQiCuqe7JllOW-18" style="edgeStyle=orthogonalEdgeStyle;rounded=0;orthogonalLoop=1;jettySize=auto;html=1;entryX=0;entryY=0.5;entryDx=0;entryDy=0;" edge="1" parent="1" source="U9Abu0mCQiCuqe7JllOW-20" target="U9Abu0mCQiCuqe7JllOW-23">
          <mxGeometry relative="1" as="geometry" />
        </mxCell>
        <mxCell id="U9Abu0mCQiCuqe7JllOW-19" value="[成功]" style="edgeLabel;html=1;align=center;verticalAlign=middle;resizable=0;points=[];" connectable="0" vertex="1" parent="U9Abu0mCQiCuqe7JllOW-18">
          <mxGeometry x="-0.6409" y="2" relative="1" as="geometry">
            <mxPoint x="13" y="2" as="offset" />
          </mxGeometry>
        </mxCell>
        <mxCell id="U9Abu0mCQiCuqe7JllOW-20" value="" style="rhombus;whiteSpace=wrap;html=1;" vertex="1" parent="1">
          <mxGeometry x="-3107" y="368.5" width="30" height="18" as="geometry" />
        </mxCell>
        <mxCell id="U9Abu0mCQiCuqe7JllOW-21" style="edgeStyle=orthogonalEdgeStyle;rounded=0;orthogonalLoop=1;jettySize=auto;html=1;entryX=0.5;entryY=0;entryDx=0;entryDy=0;" edge="1" parent="1" source="U9Abu0mCQiCuqe7JllOW-22" target="U9Abu0mCQiCuqe7JllOW-5">
          <mxGeometry relative="1" as="geometry" />
        </mxCell>
        <mxCell id="U9Abu0mCQiCuqe7JllOW-22" value="提示身份驗證失敗" style="rounded=1;whiteSpace=wrap;html=1;" vertex="1" parent="1">
          <mxGeometry x="-3152" y="429.5" width="120" height="31" as="geometry" />
        </mxCell>
        <mxCell id="U9Abu0mCQiCuqe7JllOW-23" value="重新設定密碼" style="rounded=1;whiteSpace=wrap;html=1;" vertex="1" parent="1">
          <mxGeometry x="-3000" y="362" width="120" height="31" as="geometry" />
        </mxCell>
        <mxCell id="U9Abu0mCQiCuqe7JllOW-24" value="" style="edgeStyle=orthogonalEdgeStyle;rounded=0;orthogonalLoop=1;jettySize=auto;html=1;exitX=0.5;exitY=1;exitDx=0;exitDy=0;" edge="1" parent="1" source="U9Abu0mCQiCuqe7JllOW-14">
          <mxGeometry relative="1" as="geometry">
            <mxPoint x="-2772" y="300" as="sourcePoint" />
            <mxPoint x="-2772" y="329" as="targetPoint" />
          </mxGeometry>
        </mxCell>
        <mxCell id="U9Abu0mCQiCuqe7JllOW-25" style="edgeStyle=orthogonalEdgeStyle;rounded=0;orthogonalLoop=1;jettySize=auto;html=1;entryX=0.5;entryY=0;entryDx=0;entryDy=0;" edge="1" parent="1" source="U9Abu0mCQiCuqe7JllOW-29" target="U9Abu0mCQiCuqe7JllOW-31">
          <mxGeometry relative="1" as="geometry">
            <Array as="points">
              <mxPoint x="-2842" y="337.5" />
            </Array>
          </mxGeometry>
        </mxCell>
        <mxCell id="U9Abu0mCQiCuqe7JllOW-26" value="[驗證成功]" style="edgeLabel;html=1;align=center;verticalAlign=middle;resizable=0;points=[];" connectable="0" vertex="1" parent="U9Abu0mCQiCuqe7JllOW-25">
          <mxGeometry x="-0.6708" y="3" relative="1" as="geometry">
            <mxPoint x="-11" y="-12" as="offset" />
          </mxGeometry>
        </mxCell>
        <mxCell id="U9Abu0mCQiCuqe7JllOW-27" style="edgeStyle=orthogonalEdgeStyle;rounded=0;orthogonalLoop=1;jettySize=auto;html=1;entryX=0.5;entryY=0;entryDx=0;entryDy=0;" edge="1" parent="1" source="U9Abu0mCQiCuqe7JllOW-29" target="U9Abu0mCQiCuqe7JllOW-33">
          <mxGeometry relative="1" as="geometry">
            <Array as="points">
              <mxPoint x="-2697" y="337.5" />
            </Array>
          </mxGeometry>
        </mxCell>
        <mxCell id="U9Abu0mCQiCuqe7JllOW-28" value="[驗證失敗]" style="edgeLabel;html=1;align=center;verticalAlign=middle;resizable=0;points=[];" connectable="0" vertex="1" parent="U9Abu0mCQiCuqe7JllOW-27">
          <mxGeometry x="-0.4952" y="2" relative="1" as="geometry">
            <mxPoint x="2" y="-7" as="offset" />
          </mxGeometry>
        </mxCell>
        <mxCell id="U9Abu0mCQiCuqe7JllOW-29" value="" style="rhombus;whiteSpace=wrap;html=1;" vertex="1" parent="1">
          <mxGeometry x="-2787" y="329" width="30" height="18" as="geometry" />
        </mxCell>
        <mxCell id="U9Abu0mCQiCuqe7JllOW-30" style="edgeStyle=orthogonalEdgeStyle;rounded=0;orthogonalLoop=1;jettySize=auto;html=1;entryX=1;entryY=0.5;entryDx=0;entryDy=0;" edge="1" parent="1" source="U9Abu0mCQiCuqe7JllOW-31" target="U9Abu0mCQiCuqe7JllOW-5">
          <mxGeometry relative="1" as="geometry">
            <Array as="points">
              <mxPoint x="-2842" y="504.5" />
            </Array>
          </mxGeometry>
        </mxCell>
        <mxCell id="U9Abu0mCQiCuqe7JllOW-31" value="提示登入成功" style="rounded=1;whiteSpace=wrap;html=1;" vertex="1" parent="1">
          <mxGeometry x="-2902" y="415.5" width="120" height="31" as="geometry" />
        </mxCell>
        <mxCell id="U9Abu0mCQiCuqe7JllOW-32" style="edgeStyle=orthogonalEdgeStyle;rounded=0;orthogonalLoop=1;jettySize=auto;html=1;entryX=1;entryY=0.5;entryDx=0;entryDy=0;" edge="1" parent="1" source="U9Abu0mCQiCuqe7JllOW-33" target="U9Abu0mCQiCuqe7JllOW-5">
          <mxGeometry relative="1" as="geometry">
            <Array as="points">
              <mxPoint x="-2697" y="504.5" />
            </Array>
          </mxGeometry>
        </mxCell>
        <mxCell id="U9Abu0mCQiCuqe7JllOW-33" value="提示帳密驗證失敗" style="rounded=1;whiteSpace=wrap;html=1;" vertex="1" parent="1">
          <mxGeometry x="-2757" y="415.5" width="120" height="31" as="geometry" />
        </mxCell>
        <mxCell id="U9Abu0mCQiCuqe7JllOW-34" style="edgeStyle=orthogonalEdgeStyle;rounded=0;orthogonalLoop=1;jettySize=auto;html=1;entryX=0;entryY=0.5;entryDx=0;entryDy=0;" edge="1" parent="1">
          <mxGeometry relative="1" as="geometry">
            <mxPoint x="-2830" y="188.5" as="sourcePoint" />
            <mxPoint x="-2772" y="249.9999999999999" as="targetPoint" />
          </mxGeometry>
        </mxCell>
        <mxCell id="U9Abu0mCQiCuqe7JllOW-35" value="輸入帳號密碼" style="rounded=1;whiteSpace=wrap;html=1;" vertex="1" parent="1">
          <mxGeometry x="-2950" y="173" width="120" height="31" as="geometry" />
        </mxCell>
        <mxCell id="U9Abu0mCQiCuqe7JllOW-36" value="" style="endArrow=classic;html=1;rounded=0;entryX=0.5;entryY=1;entryDx=0;entryDy=0;exitX=0.5;exitY=0;exitDx=0;exitDy=0;" edge="1" parent="1" source="U9Abu0mCQiCuqe7JllOW-23" target="U9Abu0mCQiCuqe7JllOW-35">
          <mxGeometry width="50" height="50" relative="1" as="geometry">
            <mxPoint x="-3050" y="300" as="sourcePoint" />
            <mxPoint x="-3000" y="250" as="targetPoint" />
            <Array as="points">
              <mxPoint x="-2940" y="330" />
              <mxPoint x="-2890" y="330" />
            </Array>
          </mxGeometry>
        </mxCell>
      </root>
    </mxGraphModel>
  </diagram>
  <diagram id="er_pTOVHoPd7UR6F9ENc" name="修改基本資料">
    <mxGraphModel grid="1" page="1" gridSize="10" guides="1" tooltips="1" connect="1" arrows="1" fold="1" pageScale="1" pageWidth="827" pageHeight="1169" math="0" shadow="0">
      <root>
        <mxCell id="0" />
        <mxCell id="1" parent="0" />
        <mxCell id="W-zlnBPCoWvDD3T-dHGB-1" value="" style="ellipse;fillColor=strokeColor;html=1;" vertex="1" parent="1">
          <mxGeometry x="1228" y="370" width="30" height="30" as="geometry" />
        </mxCell>
        <mxCell id="W-zlnBPCoWvDD3T-dHGB-2" value="" style="endArrow=classic;html=1;rounded=0;exitX=0.5;exitY=1;exitDx=0;exitDy=0;" edge="1" parent="1" source="W-zlnBPCoWvDD3T-dHGB-1">
          <mxGeometry width="50" height="50" relative="1" as="geometry">
            <mxPoint x="1233" y="620" as="sourcePoint" />
            <mxPoint x="1243" y="440" as="targetPoint" />
          </mxGeometry>
        </mxCell>
        <mxCell id="W-zlnBPCoWvDD3T-dHGB-3" value="&lt;font style=&quot;font-size: 15px;&quot;&gt;進入會員專區頁面&lt;/font&gt;" style="html=1;align=center;verticalAlign=top;rounded=1;absoluteArcSize=1;arcSize=10;dashed=0;whiteSpace=wrap;" vertex="1" parent="1">
          <mxGeometry x="1173" y="440" width="140" height="40" as="geometry" />
        </mxCell>
        <mxCell id="W-zlnBPCoWvDD3T-dHGB-4" value="" style="endArrow=classic;html=1;rounded=0;exitX=0.5;exitY=1;exitDx=0;exitDy=0;" edge="1" parent="1">
          <mxGeometry width="50" height="50" relative="1" as="geometry">
            <mxPoint x="1243" y="480" as="sourcePoint" />
            <mxPoint x="1243" y="520" as="targetPoint" />
          </mxGeometry>
        </mxCell>
        <mxCell id="W-zlnBPCoWvDD3T-dHGB-5" value="&lt;font style=&quot;font-size: 15px;&quot;&gt;修改基本資料&lt;/font&gt;" style="html=1;align=center;verticalAlign=top;rounded=1;absoluteArcSize=1;arcSize=10;dashed=0;whiteSpace=wrap;" vertex="1" parent="1">
          <mxGeometry x="1173" y="520" width="140" height="40" as="geometry" />
        </mxCell>
        <mxCell id="W-zlnBPCoWvDD3T-dHGB-6" value="&lt;span style=&quot;font-size: 15px;&quot;&gt;修改成功&lt;/span&gt;" style="html=1;align=center;verticalAlign=top;rounded=1;absoluteArcSize=1;arcSize=10;dashed=0;whiteSpace=wrap;" vertex="1" parent="1">
          <mxGeometry x="1173" y="770" width="140" height="40" as="geometry" />
        </mxCell>
        <mxCell id="W-zlnBPCoWvDD3T-dHGB-7" value="" style="ellipse;html=1;shape=endState;fillColor=strokeColor;" vertex="1" parent="1">
          <mxGeometry x="1053" y="775" width="30" height="30" as="geometry" />
        </mxCell>
        <mxCell id="W-zlnBPCoWvDD3T-dHGB-8" value="" style="rhombus;" vertex="1" parent="1">
          <mxGeometry x="1228" y="675" width="30" height="30" as="geometry" />
        </mxCell>
        <mxCell id="W-zlnBPCoWvDD3T-dHGB-9" value="" style="endArrow=classic;html=1;rounded=0;exitX=0.5;exitY=1;exitDx=0;exitDy=0;" edge="1" parent="1" source="W-zlnBPCoWvDD3T-dHGB-5">
          <mxGeometry width="50" height="50" relative="1" as="geometry">
            <mxPoint x="1188" y="660" as="sourcePoint" />
            <mxPoint x="1243" y="600" as="targetPoint" />
          </mxGeometry>
        </mxCell>
        <mxCell id="W-zlnBPCoWvDD3T-dHGB-10" value="[修改]" style="edgeLabel;html=1;align=center;verticalAlign=middle;resizable=0;points=[];" connectable="0" vertex="1" parent="W-zlnBPCoWvDD3T-dHGB-9">
          <mxGeometry x="-0.2414" relative="1" as="geometry">
            <mxPoint as="offset" />
          </mxGeometry>
        </mxCell>
        <mxCell id="W-zlnBPCoWvDD3T-dHGB-11" value="" style="endArrow=classic;html=1;rounded=0;exitX=0.5;exitY=1;exitDx=0;exitDy=0;" edge="1" parent="1" source="W-zlnBPCoWvDD3T-dHGB-8">
          <mxGeometry width="50" height="50" relative="1" as="geometry">
            <mxPoint x="1188" y="810" as="sourcePoint" />
            <mxPoint x="1243" y="770" as="targetPoint" />
          </mxGeometry>
        </mxCell>
        <mxCell id="W-zlnBPCoWvDD3T-dHGB-12" value="[成功]" style="edgeLabel;html=1;align=center;verticalAlign=middle;resizable=0;points=[];" connectable="0" vertex="1" parent="W-zlnBPCoWvDD3T-dHGB-11">
          <mxGeometry x="-0.2923" y="-1" relative="1" as="geometry">
            <mxPoint as="offset" />
          </mxGeometry>
        </mxCell>
        <mxCell id="W-zlnBPCoWvDD3T-dHGB-13" value="&lt;span style=&quot;font-size: 15px;&quot;&gt;修改失敗&lt;/span&gt;" style="html=1;align=center;verticalAlign=top;rounded=1;absoluteArcSize=1;arcSize=10;dashed=0;whiteSpace=wrap;" vertex="1" parent="1">
          <mxGeometry x="1343" y="670" width="140" height="40" as="geometry" />
        </mxCell>
        <mxCell id="W-zlnBPCoWvDD3T-dHGB-14" value="" style="endArrow=classic;html=1;rounded=0;exitX=1;exitY=0.5;exitDx=0;exitDy=0;entryX=0;entryY=0.5;entryDx=0;entryDy=0;" edge="1" parent="1" source="W-zlnBPCoWvDD3T-dHGB-8" target="W-zlnBPCoWvDD3T-dHGB-13">
          <mxGeometry width="50" height="50" relative="1" as="geometry">
            <mxPoint x="1188" y="820" as="sourcePoint" />
            <mxPoint x="1238" y="770" as="targetPoint" />
          </mxGeometry>
        </mxCell>
        <mxCell id="W-zlnBPCoWvDD3T-dHGB-15" value="[失敗]" style="edgeLabel;html=1;align=center;verticalAlign=middle;resizable=0;points=[];" connectable="0" vertex="1" parent="W-zlnBPCoWvDD3T-dHGB-14">
          <mxGeometry x="-0.1569" relative="1" as="geometry">
            <mxPoint as="offset" />
          </mxGeometry>
        </mxCell>
        <mxCell id="W-zlnBPCoWvDD3T-dHGB-16" value="&lt;span style=&quot;font-size: 15px;&quot;&gt;修改取消&lt;/span&gt;" style="html=1;align=center;verticalAlign=top;rounded=1;absoluteArcSize=1;arcSize=10;dashed=0;whiteSpace=wrap;" vertex="1" parent="1">
          <mxGeometry x="998" y="670" width="140" height="40" as="geometry" />
        </mxCell>
        <mxCell id="W-zlnBPCoWvDD3T-dHGB-17" value="" style="endArrow=classic;html=1;rounded=0;exitX=0;exitY=0.5;exitDx=0;exitDy=0;entryX=1;entryY=0.5;entryDx=0;entryDy=0;" edge="1" parent="1" source="W-zlnBPCoWvDD3T-dHGB-5">
          <mxGeometry width="50" height="50" relative="1" as="geometry">
            <mxPoint x="1158" y="669.31" as="sourcePoint" />
            <mxPoint x="1068" y="669.31" as="targetPoint" />
            <Array as="points">
              <mxPoint x="1068" y="540" />
            </Array>
          </mxGeometry>
        </mxCell>
        <mxCell id="W-zlnBPCoWvDD3T-dHGB-18" value="[取消]" style="edgeLabel;html=1;align=center;verticalAlign=middle;resizable=0;points=[];" connectable="0" vertex="1" parent="W-zlnBPCoWvDD3T-dHGB-17">
          <mxGeometry x="-0.1569" relative="1" as="geometry">
            <mxPoint x="54" as="offset" />
          </mxGeometry>
        </mxCell>
        <mxCell id="W-zlnBPCoWvDD3T-dHGB-19" value="" style="endArrow=classic;html=1;rounded=0;exitX=0.5;exitY=0;exitDx=0;exitDy=0;entryX=1;entryY=0.5;entryDx=0;entryDy=0;" edge="1" parent="1" source="W-zlnBPCoWvDD3T-dHGB-13" target="W-zlnBPCoWvDD3T-dHGB-5">
          <mxGeometry width="50" height="50" relative="1" as="geometry">
            <mxPoint x="1448" y="650" as="sourcePoint" />
            <mxPoint x="1312.9999999999995" y="610" as="targetPoint" />
            <Array as="points">
              <mxPoint x="1413" y="540" />
            </Array>
          </mxGeometry>
        </mxCell>
        <mxCell id="W-zlnBPCoWvDD3T-dHGB-20" value="" style="endArrow=classic;html=1;rounded=0;exitX=0.5;exitY=1;exitDx=0;exitDy=0;entryX=0.5;entryY=0;entryDx=0;entryDy=0;" edge="1" parent="1" source="W-zlnBPCoWvDD3T-dHGB-16" target="W-zlnBPCoWvDD3T-dHGB-7">
          <mxGeometry width="50" height="50" relative="1" as="geometry">
            <mxPoint x="1188" y="730" as="sourcePoint" />
            <mxPoint x="1238" y="680" as="targetPoint" />
          </mxGeometry>
        </mxCell>
        <mxCell id="W-zlnBPCoWvDD3T-dHGB-21" value="" style="endArrow=classic;html=1;rounded=0;exitX=0;exitY=0.5;exitDx=0;exitDy=0;entryX=1;entryY=0.5;entryDx=0;entryDy=0;" edge="1" parent="1" source="W-zlnBPCoWvDD3T-dHGB-6" target="W-zlnBPCoWvDD3T-dHGB-7">
          <mxGeometry width="50" height="50" relative="1" as="geometry">
            <mxPoint x="1188" y="730" as="sourcePoint" />
            <mxPoint x="1238" y="680" as="targetPoint" />
          </mxGeometry>
        </mxCell>
        <mxCell id="W-zlnBPCoWvDD3T-dHGB-22" value="&lt;font style=&quot;font-size: 15px;&quot;&gt;驗證資料格式&lt;/font&gt;" style="html=1;align=center;verticalAlign=top;rounded=1;absoluteArcSize=1;arcSize=10;dashed=0;whiteSpace=wrap;" vertex="1" parent="1">
          <mxGeometry x="1173" y="600" width="140" height="40" as="geometry" />
        </mxCell>
        <mxCell id="W-zlnBPCoWvDD3T-dHGB-23" value="" style="endArrow=classic;html=1;rounded=0;exitX=0.5;exitY=1;exitDx=0;exitDy=0;entryX=0.5;entryY=0;entryDx=0;entryDy=0;" edge="1" parent="1" target="W-zlnBPCoWvDD3T-dHGB-8">
          <mxGeometry width="50" height="50" relative="1" as="geometry">
            <mxPoint x="1242.8" y="640" as="sourcePoint" />
            <mxPoint x="1242.8" y="680" as="targetPoint" />
          </mxGeometry>
        </mxCell>
      </root>
    </mxGraphModel>
  </diagram>
  <diagram id="31E3ropG5CTUnao8Cj-_" name="修改偏好設定">
    <mxGraphModel grid="1" page="1" gridSize="10" guides="1" tooltips="1" connect="1" arrows="1" fold="1" pageScale="1" pageWidth="827" pageHeight="1169" math="0" shadow="0">
      <root>
        <mxCell id="0" />
        <mxCell id="1" parent="0" />
        <mxCell id="UzYHjCTPDLc7N78k2IMK-1" value="" style="ellipse;fillColor=strokeColor;html=1;" vertex="1" parent="1">
          <mxGeometry x="1298" y="429" width="30" height="30" as="geometry" />
        </mxCell>
        <mxCell id="UzYHjCTPDLc7N78k2IMK-2" value="" style="endArrow=classic;html=1;rounded=0;exitX=0.5;exitY=1;exitDx=0;exitDy=0;" edge="1" parent="1" source="UzYHjCTPDLc7N78k2IMK-1">
          <mxGeometry width="50" height="50" relative="1" as="geometry">
            <mxPoint x="1303" y="679" as="sourcePoint" />
            <mxPoint x="1313" y="499" as="targetPoint" />
          </mxGeometry>
        </mxCell>
        <mxCell id="UzYHjCTPDLc7N78k2IMK-3" value="&lt;font style=&quot;font-size: 15px;&quot;&gt;進入會員專區頁面&lt;/font&gt;" style="html=1;align=center;verticalAlign=top;rounded=1;absoluteArcSize=1;arcSize=10;dashed=0;whiteSpace=wrap;" vertex="1" parent="1">
          <mxGeometry x="1243" y="499" width="140" height="40" as="geometry" />
        </mxCell>
        <mxCell id="UzYHjCTPDLc7N78k2IMK-4" value="" style="endArrow=classic;html=1;rounded=0;exitX=0.5;exitY=1;exitDx=0;exitDy=0;" edge="1" parent="1">
          <mxGeometry width="50" height="50" relative="1" as="geometry">
            <mxPoint x="1313" y="539" as="sourcePoint" />
            <mxPoint x="1313" y="579" as="targetPoint" />
          </mxGeometry>
        </mxCell>
        <mxCell id="UzYHjCTPDLc7N78k2IMK-5" value="&lt;font style=&quot;font-size: 15px;&quot;&gt;修改偏好設定&lt;/font&gt;" style="html=1;align=center;verticalAlign=top;rounded=1;absoluteArcSize=1;arcSize=10;dashed=0;whiteSpace=wrap;" vertex="1" parent="1">
          <mxGeometry x="1243" y="579" width="140" height="40" as="geometry" />
        </mxCell>
        <mxCell id="UzYHjCTPDLc7N78k2IMK-6" value="&lt;span style=&quot;font-size: 15px;&quot;&gt;修改成功&lt;/span&gt;" style="html=1;align=center;verticalAlign=top;rounded=1;absoluteArcSize=1;arcSize=10;dashed=0;whiteSpace=wrap;" vertex="1" parent="1">
          <mxGeometry x="1243" y="759" width="140" height="40" as="geometry" />
        </mxCell>
        <mxCell id="UzYHjCTPDLc7N78k2IMK-7" value="" style="ellipse;html=1;shape=endState;fillColor=strokeColor;" vertex="1" parent="1">
          <mxGeometry x="1123" y="764" width="30" height="30" as="geometry" />
        </mxCell>
        <mxCell id="UzYHjCTPDLc7N78k2IMK-8" value="" style="rhombus;" vertex="1" parent="1">
          <mxGeometry x="1298" y="664" width="30" height="30" as="geometry" />
        </mxCell>
        <mxCell id="UzYHjCTPDLc7N78k2IMK-9" value="" style="endArrow=classic;html=1;rounded=0;exitX=0.5;exitY=1;exitDx=0;exitDy=0;entryX=0.5;entryY=0;entryDx=0;entryDy=0;" edge="1" parent="1" source="UzYHjCTPDLc7N78k2IMK-5" target="UzYHjCTPDLc7N78k2IMK-8">
          <mxGeometry width="50" height="50" relative="1" as="geometry">
            <mxPoint x="1258" y="719" as="sourcePoint" />
            <mxPoint x="1308" y="669" as="targetPoint" />
          </mxGeometry>
        </mxCell>
        <mxCell id="UzYHjCTPDLc7N78k2IMK-10" value="" style="endArrow=classic;html=1;rounded=0;exitX=0.5;exitY=1;exitDx=0;exitDy=0;" edge="1" parent="1" source="UzYHjCTPDLc7N78k2IMK-8">
          <mxGeometry width="50" height="50" relative="1" as="geometry">
            <mxPoint x="1258" y="799" as="sourcePoint" />
            <mxPoint x="1313" y="759" as="targetPoint" />
          </mxGeometry>
        </mxCell>
        <mxCell id="UzYHjCTPDLc7N78k2IMK-11" value="[成功]" style="edgeLabel;html=1;align=center;verticalAlign=middle;resizable=0;points=[];" connectable="0" vertex="1" parent="UzYHjCTPDLc7N78k2IMK-10">
          <mxGeometry x="-0.2923" y="-1" relative="1" as="geometry">
            <mxPoint as="offset" />
          </mxGeometry>
        </mxCell>
        <mxCell id="UzYHjCTPDLc7N78k2IMK-12" value="&lt;span style=&quot;font-size: 15px;&quot;&gt;修改取消&lt;/span&gt;" style="html=1;align=center;verticalAlign=top;rounded=1;absoluteArcSize=1;arcSize=10;dashed=0;whiteSpace=wrap;" vertex="1" parent="1">
          <mxGeometry x="1068" y="659" width="140" height="40" as="geometry" />
        </mxCell>
        <mxCell id="UzYHjCTPDLc7N78k2IMK-13" value="" style="endArrow=classic;html=1;rounded=0;exitX=0;exitY=0.5;exitDx=0;exitDy=0;entryX=1;entryY=0.5;entryDx=0;entryDy=0;" edge="1" parent="1" source="UzYHjCTPDLc7N78k2IMK-8" target="UzYHjCTPDLc7N78k2IMK-12">
          <mxGeometry width="50" height="50" relative="1" as="geometry">
            <mxPoint x="1338" y="689" as="sourcePoint" />
            <mxPoint x="1423" y="689" as="targetPoint" />
          </mxGeometry>
        </mxCell>
        <mxCell id="UzYHjCTPDLc7N78k2IMK-14" value="[取消]" style="edgeLabel;html=1;align=center;verticalAlign=middle;resizable=0;points=[];" connectable="0" vertex="1" parent="UzYHjCTPDLc7N78k2IMK-13">
          <mxGeometry x="-0.1569" relative="1" as="geometry">
            <mxPoint as="offset" />
          </mxGeometry>
        </mxCell>
        <mxCell id="UzYHjCTPDLc7N78k2IMK-15" value="" style="endArrow=classic;html=1;rounded=0;exitX=0.5;exitY=1;exitDx=0;exitDy=0;entryX=0.5;entryY=0;entryDx=0;entryDy=0;" edge="1" parent="1" source="UzYHjCTPDLc7N78k2IMK-12" target="UzYHjCTPDLc7N78k2IMK-7">
          <mxGeometry width="50" height="50" relative="1" as="geometry">
            <mxPoint x="1258" y="719" as="sourcePoint" />
            <mxPoint x="1308" y="669" as="targetPoint" />
          </mxGeometry>
        </mxCell>
        <mxCell id="UzYHjCTPDLc7N78k2IMK-16" value="" style="endArrow=classic;html=1;rounded=0;exitX=0;exitY=0.5;exitDx=0;exitDy=0;entryX=1;entryY=0.5;entryDx=0;entryDy=0;" edge="1" parent="1" source="UzYHjCTPDLc7N78k2IMK-6" target="UzYHjCTPDLc7N78k2IMK-7">
          <mxGeometry width="50" height="50" relative="1" as="geometry">
            <mxPoint x="1258" y="719" as="sourcePoint" />
            <mxPoint x="1308" y="669" as="targetPoint" />
          </mxGeometry>
        </mxCell>
      </root>
    </mxGraphModel>
  </diagram>
  <diagram id="hI7UlpKsy7MEXRjlcfFN" name="修改權重設定">
    <mxGraphModel grid="1" page="1" gridSize="10" guides="1" tooltips="1" connect="1" arrows="1" fold="1" pageScale="1" pageWidth="827" pageHeight="1169" math="0" shadow="0">
      <root>
        <mxCell id="0" />
        <mxCell id="1" parent="0" />
        <mxCell id="n44klKkhvc2guoKd2Fgb-1" value="" style="ellipse;fillColor=strokeColor;html=1;" vertex="1" parent="1">
          <mxGeometry x="2070" y="429" width="30" height="30" as="geometry" />
        </mxCell>
        <mxCell id="n44klKkhvc2guoKd2Fgb-2" value="" style="endArrow=classic;html=1;rounded=0;exitX=0.5;exitY=1;exitDx=0;exitDy=0;" edge="1" parent="1" source="n44klKkhvc2guoKd2Fgb-1">
          <mxGeometry width="50" height="50" relative="1" as="geometry">
            <mxPoint x="2075" y="679" as="sourcePoint" />
            <mxPoint x="2085" y="499" as="targetPoint" />
          </mxGeometry>
        </mxCell>
        <mxCell id="n44klKkhvc2guoKd2Fgb-3" value="&lt;font style=&quot;font-size: 15px;&quot;&gt;進入會員專區頁面&lt;/font&gt;" style="html=1;align=center;verticalAlign=top;rounded=1;absoluteArcSize=1;arcSize=10;dashed=0;whiteSpace=wrap;" vertex="1" parent="1">
          <mxGeometry x="2015" y="499" width="140" height="40" as="geometry" />
        </mxCell>
        <mxCell id="n44klKkhvc2guoKd2Fgb-4" value="" style="endArrow=classic;html=1;rounded=0;exitX=0.5;exitY=1;exitDx=0;exitDy=0;" edge="1" parent="1">
          <mxGeometry width="50" height="50" relative="1" as="geometry">
            <mxPoint x="2085" y="539" as="sourcePoint" />
            <mxPoint x="2085" y="579" as="targetPoint" />
          </mxGeometry>
        </mxCell>
        <mxCell id="n44klKkhvc2guoKd2Fgb-5" value="&lt;font style=&quot;font-size: 15px;&quot;&gt;修改權重設定&lt;/font&gt;" style="html=1;align=center;verticalAlign=top;rounded=1;absoluteArcSize=1;arcSize=10;dashed=0;whiteSpace=wrap;" vertex="1" parent="1">
          <mxGeometry x="2015" y="579" width="140" height="40" as="geometry" />
        </mxCell>
        <mxCell id="n44klKkhvc2guoKd2Fgb-6" value="&lt;span style=&quot;font-size: 15px;&quot;&gt;修改成功&lt;/span&gt;" style="html=1;align=center;verticalAlign=top;rounded=1;absoluteArcSize=1;arcSize=10;dashed=0;whiteSpace=wrap;" vertex="1" parent="1">
          <mxGeometry x="2015" y="759" width="140" height="40" as="geometry" />
        </mxCell>
        <mxCell id="n44klKkhvc2guoKd2Fgb-7" value="" style="ellipse;html=1;shape=endState;fillColor=strokeColor;" vertex="1" parent="1">
          <mxGeometry x="1895" y="764" width="30" height="30" as="geometry" />
        </mxCell>
        <mxCell id="n44klKkhvc2guoKd2Fgb-8" value="" style="rhombus;" vertex="1" parent="1">
          <mxGeometry x="2070" y="664" width="30" height="30" as="geometry" />
        </mxCell>
        <mxCell id="n44klKkhvc2guoKd2Fgb-9" value="" style="endArrow=classic;html=1;rounded=0;exitX=0.5;exitY=1;exitDx=0;exitDy=0;entryX=0.5;entryY=0;entryDx=0;entryDy=0;" edge="1" parent="1" source="n44klKkhvc2guoKd2Fgb-5" target="n44klKkhvc2guoKd2Fgb-8">
          <mxGeometry width="50" height="50" relative="1" as="geometry">
            <mxPoint x="2030" y="719" as="sourcePoint" />
            <mxPoint x="2080" y="669" as="targetPoint" />
          </mxGeometry>
        </mxCell>
        <mxCell id="n44klKkhvc2guoKd2Fgb-10" value="" style="endArrow=classic;html=1;rounded=0;exitX=0.5;exitY=1;exitDx=0;exitDy=0;" edge="1" parent="1" source="n44klKkhvc2guoKd2Fgb-8">
          <mxGeometry width="50" height="50" relative="1" as="geometry">
            <mxPoint x="2030" y="799" as="sourcePoint" />
            <mxPoint x="2085" y="759" as="targetPoint" />
          </mxGeometry>
        </mxCell>
        <mxCell id="n44klKkhvc2guoKd2Fgb-11" value="[成功]" style="edgeLabel;html=1;align=center;verticalAlign=middle;resizable=0;points=[];" connectable="0" vertex="1" parent="n44klKkhvc2guoKd2Fgb-10">
          <mxGeometry x="-0.2923" y="-1" relative="1" as="geometry">
            <mxPoint as="offset" />
          </mxGeometry>
        </mxCell>
        <mxCell id="n44klKkhvc2guoKd2Fgb-12" value="&lt;span style=&quot;font-size: 15px;&quot;&gt;修改取消&lt;/span&gt;" style="html=1;align=center;verticalAlign=top;rounded=1;absoluteArcSize=1;arcSize=10;dashed=0;whiteSpace=wrap;" vertex="1" parent="1">
          <mxGeometry x="1840" y="659" width="140" height="40" as="geometry" />
        </mxCell>
        <mxCell id="n44klKkhvc2guoKd2Fgb-13" value="" style="endArrow=classic;html=1;rounded=0;exitX=0;exitY=0.5;exitDx=0;exitDy=0;entryX=1;entryY=0.5;entryDx=0;entryDy=0;" edge="1" parent="1" source="n44klKkhvc2guoKd2Fgb-8" target="n44klKkhvc2guoKd2Fgb-12">
          <mxGeometry width="50" height="50" relative="1" as="geometry">
            <mxPoint x="2110" y="689" as="sourcePoint" />
            <mxPoint x="2195" y="689" as="targetPoint" />
          </mxGeometry>
        </mxCell>
        <mxCell id="n44klKkhvc2guoKd2Fgb-14" value="[取消]" style="edgeLabel;html=1;align=center;verticalAlign=middle;resizable=0;points=[];" connectable="0" vertex="1" parent="n44klKkhvc2guoKd2Fgb-13">
          <mxGeometry x="-0.1569" relative="1" as="geometry">
            <mxPoint as="offset" />
          </mxGeometry>
        </mxCell>
        <mxCell id="n44klKkhvc2guoKd2Fgb-15" value="" style="endArrow=classic;html=1;rounded=0;exitX=0.5;exitY=1;exitDx=0;exitDy=0;entryX=0.5;entryY=0;entryDx=0;entryDy=0;" edge="1" parent="1" source="n44klKkhvc2guoKd2Fgb-12" target="n44klKkhvc2guoKd2Fgb-7">
          <mxGeometry width="50" height="50" relative="1" as="geometry">
            <mxPoint x="2030" y="719" as="sourcePoint" />
            <mxPoint x="2080" y="669" as="targetPoint" />
          </mxGeometry>
        </mxCell>
        <mxCell id="n44klKkhvc2guoKd2Fgb-16" value="" style="endArrow=classic;html=1;rounded=0;exitX=0;exitY=0.5;exitDx=0;exitDy=0;entryX=1;entryY=0.5;entryDx=0;entryDy=0;" edge="1" parent="1" source="n44klKkhvc2guoKd2Fgb-6" target="n44klKkhvc2guoKd2Fgb-7">
          <mxGeometry width="50" height="50" relative="1" as="geometry">
            <mxPoint x="2030" y="719" as="sourcePoint" />
            <mxPoint x="2080" y="669" as="targetPoint" />
          </mxGeometry>
        </mxCell>
      </root>
    </mxGraphModel>
  </diagram>
  <diagram id="n9L_TkTt6CzP4JJfO792" name="收藏商家管理">
    <mxGraphModel grid="1" page="1" gridSize="10" guides="1" tooltips="1" connect="1" arrows="1" fold="1" pageScale="1" pageWidth="827" pageHeight="1169" math="0" shadow="0">
      <root>
        <mxCell id="0" />
        <mxCell id="1" parent="0" />
        <mxCell id="Lwjl83tAainjjSGFKWnW-1" value="" style="ellipse;fillColor=strokeColor;html=1;" vertex="1" parent="1">
          <mxGeometry x="1975" y="1380" width="30" height="30" as="geometry" />
        </mxCell>
        <mxCell id="Lwjl83tAainjjSGFKWnW-2" value="" style="endArrow=classic;html=1;rounded=0;exitX=0.5;exitY=1;exitDx=0;exitDy=0;" edge="1" parent="1" source="Lwjl83tAainjjSGFKWnW-1">
          <mxGeometry width="50" height="50" relative="1" as="geometry">
            <mxPoint x="1980" y="1630" as="sourcePoint" />
            <mxPoint x="1990" y="1450" as="targetPoint" />
          </mxGeometry>
        </mxCell>
        <mxCell id="Lwjl83tAainjjSGFKWnW-3" value="&lt;font style=&quot;font-size: 15px;&quot;&gt;進入會員專區頁面&lt;/font&gt;" style="html=1;align=center;verticalAlign=top;rounded=1;absoluteArcSize=1;arcSize=10;dashed=0;whiteSpace=wrap;" vertex="1" parent="1">
          <mxGeometry x="1920" y="1450" width="140" height="40" as="geometry" />
        </mxCell>
        <mxCell id="Lwjl83tAainjjSGFKWnW-4" value="" style="endArrow=classic;html=1;rounded=0;exitX=0.5;exitY=1;exitDx=0;exitDy=0;" edge="1" parent="1">
          <mxGeometry width="50" height="50" relative="1" as="geometry">
            <mxPoint x="1990" y="1490" as="sourcePoint" />
            <mxPoint x="1990" y="1530" as="targetPoint" />
          </mxGeometry>
        </mxCell>
        <mxCell id="Lwjl83tAainjjSGFKWnW-5" value="&lt;font style=&quot;font-size: 15px;&quot;&gt;選擇收藏商家&lt;/font&gt;" style="html=1;align=center;verticalAlign=top;rounded=1;absoluteArcSize=1;arcSize=10;dashed=0;whiteSpace=wrap;" vertex="1" parent="1">
          <mxGeometry x="1920" y="1530" width="140" height="40" as="geometry" />
        </mxCell>
        <mxCell id="Lwjl83tAainjjSGFKWnW-6" value="&lt;span style=&quot;font-size: 15px;&quot;&gt;刪除成功&lt;/span&gt;" style="html=1;align=center;verticalAlign=top;rounded=1;absoluteArcSize=1;arcSize=10;dashed=0;whiteSpace=wrap;" vertex="1" parent="1">
          <mxGeometry x="2165" y="2048.1400000000003" width="140" height="40" as="geometry" />
        </mxCell>
        <mxCell id="Lwjl83tAainjjSGFKWnW-7" value="" style="ellipse;html=1;shape=endState;fillColor=strokeColor;" vertex="1" parent="1">
          <mxGeometry x="2220" y="2133.1400000000003" width="30" height="30" as="geometry" />
        </mxCell>
        <mxCell id="Lwjl83tAainjjSGFKWnW-8" value="" style="rhombus;" vertex="1" parent="1">
          <mxGeometry x="1975" y="1615" width="30" height="30" as="geometry" />
        </mxCell>
        <mxCell id="Lwjl83tAainjjSGFKWnW-9" value="" style="endArrow=classic;html=1;rounded=0;exitX=0.5;exitY=1;exitDx=0;exitDy=0;entryX=0.5;entryY=0;entryDx=0;entryDy=0;" edge="1" parent="1" source="Lwjl83tAainjjSGFKWnW-5" target="Lwjl83tAainjjSGFKWnW-8">
          <mxGeometry width="50" height="50" relative="1" as="geometry">
            <mxPoint x="1935" y="1670" as="sourcePoint" />
            <mxPoint x="1985" y="1620" as="targetPoint" />
          </mxGeometry>
        </mxCell>
        <mxCell id="Lwjl83tAainjjSGFKWnW-10" value="" style="endArrow=classic;html=1;rounded=0;entryX=0;entryY=0.5;entryDx=0;entryDy=0;" edge="1" parent="1" target="Lwjl83tAainjjSGFKWnW-12">
          <mxGeometry width="50" height="50" relative="1" as="geometry">
            <mxPoint x="2005" y="1630" as="sourcePoint" />
            <mxPoint x="2085" y="1630" as="targetPoint" />
          </mxGeometry>
        </mxCell>
        <mxCell id="Lwjl83tAainjjSGFKWnW-11" value="[無收藏商家]" style="edgeLabel;html=1;align=center;verticalAlign=middle;resizable=0;points=[];" connectable="0" vertex="1" parent="Lwjl83tAainjjSGFKWnW-10">
          <mxGeometry x="-0.275" relative="1" as="geometry">
            <mxPoint as="offset" />
          </mxGeometry>
        </mxCell>
        <mxCell id="Lwjl83tAainjjSGFKWnW-12" value="&lt;span style=&quot;font-size: 15px;&quot;&gt;顯示查無資料&lt;/span&gt;" style="html=1;align=center;verticalAlign=top;rounded=1;absoluteArcSize=1;arcSize=10;dashed=0;whiteSpace=wrap;" vertex="1" parent="1">
          <mxGeometry x="2205" y="1610" width="140" height="40" as="geometry" />
        </mxCell>
        <mxCell id="Lwjl83tAainjjSGFKWnW-13" value="" style="endArrow=classic;html=1;rounded=0;exitX=0.5;exitY=1;exitDx=0;exitDy=0;" edge="1" parent="1" source="Lwjl83tAainjjSGFKWnW-8">
          <mxGeometry width="50" height="50" relative="1" as="geometry">
            <mxPoint x="2055" y="1720" as="sourcePoint" />
            <mxPoint x="1990" y="1700" as="targetPoint" />
          </mxGeometry>
        </mxCell>
        <mxCell id="Lwjl83tAainjjSGFKWnW-14" value="[有收藏商家]" style="edgeLabel;html=1;align=center;verticalAlign=middle;resizable=0;points=[];" connectable="0" vertex="1" parent="Lwjl83tAainjjSGFKWnW-13">
          <mxGeometry x="-0.1636" y="1" relative="1" as="geometry">
            <mxPoint as="offset" />
          </mxGeometry>
        </mxCell>
        <mxCell id="Lwjl83tAainjjSGFKWnW-15" value="&lt;span style=&quot;font-size: 15px;&quot;&gt;顯示收藏商家&lt;/span&gt;" style="html=1;align=center;verticalAlign=top;rounded=1;absoluteArcSize=1;arcSize=10;dashed=0;whiteSpace=wrap;" vertex="1" parent="1">
          <mxGeometry x="1925" y="1700" width="140" height="40" as="geometry" />
        </mxCell>
        <mxCell id="Lwjl83tAainjjSGFKWnW-16" value="" style="endArrow=classic;html=1;rounded=0;exitX=0.5;exitY=1;exitDx=0;exitDy=0;entryX=0.5;entryY=0;entryDx=0;entryDy=0;" edge="1" parent="1">
          <mxGeometry width="50" height="50" relative="1" as="geometry">
            <mxPoint x="1989.67" y="1740" as="sourcePoint" />
            <mxPoint x="1989.67" y="1785" as="targetPoint" />
          </mxGeometry>
        </mxCell>
        <mxCell id="Lwjl83tAainjjSGFKWnW-17" value="" style="rhombus;" vertex="1" parent="1">
          <mxGeometry x="2055" y="2053.1400000000003" width="30" height="30" as="geometry" />
        </mxCell>
        <mxCell id="Lwjl83tAainjjSGFKWnW-18" value="" style="endArrow=classic;html=1;rounded=0;exitX=1;exitY=0.5;exitDx=0;exitDy=0;" edge="1" parent="1" source="Lwjl83tAainjjSGFKWnW-17">
          <mxGeometry width="50" height="50" relative="1" as="geometry">
            <mxPoint x="2015" y="2078.1400000000003" as="sourcePoint" />
            <mxPoint x="2165" y="2068.1400000000003" as="targetPoint" />
          </mxGeometry>
        </mxCell>
        <mxCell id="Lwjl83tAainjjSGFKWnW-19" value="[刪除]" style="edgeLabel;html=1;align=center;verticalAlign=middle;resizable=0;points=[];" connectable="0" vertex="1" parent="Lwjl83tAainjjSGFKWnW-18">
          <mxGeometry x="-0.28" relative="1" as="geometry">
            <mxPoint as="offset" />
          </mxGeometry>
        </mxCell>
        <mxCell id="Lwjl83tAainjjSGFKWnW-20" value="" style="endArrow=classic;html=1;rounded=0;exitX=0.5;exitY=1;exitDx=0;exitDy=0;" edge="1" parent="1" source="Lwjl83tAainjjSGFKWnW-17">
          <mxGeometry width="50" height="50" relative="1" as="geometry">
            <mxPoint x="2015" y="2078.1400000000003" as="sourcePoint" />
            <mxPoint x="2070" y="2128.1400000000003" as="targetPoint" />
          </mxGeometry>
        </mxCell>
        <mxCell id="Lwjl83tAainjjSGFKWnW-21" value="[取消]" style="edgeLabel;html=1;align=center;verticalAlign=middle;resizable=0;points=[];" connectable="0" vertex="1" parent="Lwjl83tAainjjSGFKWnW-20">
          <mxGeometry x="-0.3659" y="-1" relative="1" as="geometry">
            <mxPoint as="offset" />
          </mxGeometry>
        </mxCell>
        <mxCell id="Lwjl83tAainjjSGFKWnW-22" value="&lt;span style=&quot;font-size: 15px;&quot;&gt;取消刪除&lt;/span&gt;" style="html=1;align=center;verticalAlign=top;rounded=1;absoluteArcSize=1;arcSize=10;dashed=0;whiteSpace=wrap;" vertex="1" parent="1">
          <mxGeometry x="2005" y="2128.1400000000003" width="140" height="40" as="geometry" />
        </mxCell>
        <mxCell id="Lwjl83tAainjjSGFKWnW-23" value="&lt;span style=&quot;font-size: 15px;&quot;&gt;刪除收藏商家&lt;/span&gt;" style="html=1;align=center;verticalAlign=top;rounded=1;absoluteArcSize=1;arcSize=10;dashed=0;whiteSpace=wrap;" vertex="1" parent="1">
          <mxGeometry x="2005" y="1968.14" width="140" height="40" as="geometry" />
        </mxCell>
        <mxCell id="Lwjl83tAainjjSGFKWnW-24" value="" style="endArrow=classic;html=1;rounded=0;exitX=0.46;exitY=0.997;exitDx=0;exitDy=0;exitPerimeter=0;entryX=0.5;entryY=0;entryDx=0;entryDy=0;" edge="1" parent="1" source="Lwjl83tAainjjSGFKWnW-23" target="Lwjl83tAainjjSGFKWnW-17">
          <mxGeometry width="50" height="50" relative="1" as="geometry">
            <mxPoint x="2065" y="2073.1400000000003" as="sourcePoint" />
            <mxPoint x="2115" y="2023.14" as="targetPoint" />
          </mxGeometry>
        </mxCell>
        <mxCell id="Lwjl83tAainjjSGFKWnW-25" value="" style="endArrow=classic;html=1;rounded=0;exitX=1;exitY=0.5;exitDx=0;exitDy=0;entryX=0;entryY=0.5;entryDx=0;entryDy=0;" edge="1" parent="1" source="Lwjl83tAainjjSGFKWnW-22" target="Lwjl83tAainjjSGFKWnW-7">
          <mxGeometry width="50" height="50" relative="1" as="geometry">
            <mxPoint x="2065" y="2113.1400000000003" as="sourcePoint" />
            <mxPoint x="2115" y="2063.1400000000003" as="targetPoint" />
          </mxGeometry>
        </mxCell>
        <mxCell id="Lwjl83tAainjjSGFKWnW-26" value="" style="endArrow=classic;html=1;rounded=0;exitX=0.5;exitY=1;exitDx=0;exitDy=0;entryX=0.5;entryY=0;entryDx=0;entryDy=0;" edge="1" parent="1" source="Lwjl83tAainjjSGFKWnW-6" target="Lwjl83tAainjjSGFKWnW-7">
          <mxGeometry width="50" height="50" relative="1" as="geometry">
            <mxPoint x="2065" y="2113.1400000000003" as="sourcePoint" />
            <mxPoint x="2115" y="2063.1400000000003" as="targetPoint" />
          </mxGeometry>
        </mxCell>
        <mxCell id="Lwjl83tAainjjSGFKWnW-27" value="" style="endArrow=classic;html=1;rounded=0;exitX=0.5;exitY=1;exitDx=0;exitDy=0;entryX=1;entryY=0.5;entryDx=0;entryDy=0;" edge="1" parent="1" source="Lwjl83tAainjjSGFKWnW-12" target="Lwjl83tAainjjSGFKWnW-7">
          <mxGeometry width="50" height="50" relative="1" as="geometry">
            <mxPoint x="1935" y="1760" as="sourcePoint" />
            <mxPoint x="1985" y="1710" as="targetPoint" />
            <Array as="points">
              <mxPoint x="2275" y="1700" />
              <mxPoint x="2345" y="1700" />
              <mxPoint x="2345" y="2148" />
            </Array>
          </mxGeometry>
        </mxCell>
        <mxCell id="Lwjl83tAainjjSGFKWnW-28" value="&lt;span style=&quot;font-size: 15px;&quot;&gt;進入商家詳細頁面&lt;/span&gt;" style="html=1;align=center;verticalAlign=top;rounded=1;absoluteArcSize=1;arcSize=10;dashed=0;whiteSpace=wrap;" vertex="1" parent="1">
          <mxGeometry x="1830" y="1968.14" width="140" height="40" as="geometry" />
        </mxCell>
        <mxCell id="Lwjl83tAainjjSGFKWnW-29" value="" style="rhombus;" vertex="1" parent="1">
          <mxGeometry x="1975" y="1870" width="30" height="30" as="geometry" />
        </mxCell>
        <mxCell id="Lwjl83tAainjjSGFKWnW-30" value="" style="endArrow=classic;html=1;rounded=0;entryX=0.5;entryY=0;entryDx=0;entryDy=0;exitX=0;exitY=0.5;exitDx=0;exitDy=0;" edge="1" parent="1" source="Lwjl83tAainjjSGFKWnW-29" target="Lwjl83tAainjjSGFKWnW-28">
          <mxGeometry width="50" height="50" relative="1" as="geometry">
            <mxPoint x="2015" y="1640" as="sourcePoint" />
            <mxPoint x="2215" y="1640" as="targetPoint" />
            <Array as="points">
              <mxPoint x="1900" y="1885" />
            </Array>
          </mxGeometry>
        </mxCell>
        <mxCell id="Lwjl83tAainjjSGFKWnW-31" value="收藏商家檢視" style="edgeLabel;html=1;align=center;verticalAlign=middle;resizable=0;points=[];" connectable="0" vertex="1" parent="Lwjl83tAainjjSGFKWnW-30">
          <mxGeometry x="-0.275" relative="1" as="geometry">
            <mxPoint x="-17" y="25" as="offset" />
          </mxGeometry>
        </mxCell>
        <mxCell id="Lwjl83tAainjjSGFKWnW-32" value="&lt;span style=&quot;font-size: 15px;&quot;&gt;收藏商家檢視或刪除&lt;/span&gt;" style="html=1;align=center;verticalAlign=top;rounded=1;absoluteArcSize=1;arcSize=10;dashed=0;whiteSpace=wrap;" vertex="1" parent="1">
          <mxGeometry x="1923" y="1785" width="140" height="40" as="geometry" />
        </mxCell>
        <mxCell id="Lwjl83tAainjjSGFKWnW-33" value="" style="endArrow=classic;html=1;rounded=0;exitX=0.5;exitY=1;exitDx=0;exitDy=0;entryX=0.5;entryY=0;entryDx=0;entryDy=0;" edge="1" parent="1">
          <mxGeometry width="50" height="50" relative="1" as="geometry">
            <mxPoint x="1989.5800000000002" y="1825" as="sourcePoint" />
            <mxPoint x="1989.5800000000002" y="1870" as="targetPoint" />
          </mxGeometry>
        </mxCell>
        <mxCell id="Lwjl83tAainjjSGFKWnW-34" value="" style="endArrow=classic;html=1;rounded=0;exitX=1;exitY=0.5;exitDx=0;exitDy=0;entryX=0.443;entryY=0.03;entryDx=0;entryDy=0;entryPerimeter=0;" edge="1" parent="1" source="Lwjl83tAainjjSGFKWnW-29" target="Lwjl83tAainjjSGFKWnW-23">
          <mxGeometry relative="1" as="geometry">
            <mxPoint x="1995" y="1960" as="sourcePoint" />
            <mxPoint x="2095" y="1960" as="targetPoint" />
            <Array as="points">
              <mxPoint x="2067" y="1885" />
            </Array>
          </mxGeometry>
        </mxCell>
        <mxCell id="Lwjl83tAainjjSGFKWnW-35" value="收藏商家刪除" style="edgeLabel;resizable=0;html=1;;align=center;verticalAlign=middle;" connectable="0" vertex="1" parent="Lwjl83tAainjjSGFKWnW-34">
          <mxGeometry relative="1" as="geometry">
            <mxPoint x="3" y="14" as="offset" />
          </mxGeometry>
        </mxCell>
        <mxCell id="Lwjl83tAainjjSGFKWnW-36" value="" style="endArrow=classic;html=1;rounded=0;exitX=0.5;exitY=1;exitDx=0;exitDy=0;" edge="1" parent="1" source="Lwjl83tAainjjSGFKWnW-28" target="Lwjl83tAainjjSGFKWnW-37">
          <mxGeometry width="50" height="50" relative="1" as="geometry">
            <mxPoint x="2025" y="1980" as="sourcePoint" />
            <mxPoint x="1900" y="2120" as="targetPoint" />
          </mxGeometry>
        </mxCell>
        <mxCell id="Lwjl83tAainjjSGFKWnW-37" value="" style="ellipse;html=1;shape=endState;fillColor=strokeColor;" vertex="1" parent="1">
          <mxGeometry x="1885" y="2133.1400000000003" width="30" height="30" as="geometry" />
        </mxCell>
      </root>
    </mxGraphModel>
  </diagram>
  <diagram id="NOZXbe4DfKU0O-5tahXD" name="商家搜尋">
    <mxGraphModel grid="1" page="1" gridSize="10" guides="1" tooltips="1" connect="1" arrows="1" fold="1" pageScale="1" pageWidth="827" pageHeight="1169" math="0" shadow="0">
      <root>
        <mxCell id="0" />
        <mxCell id="1" parent="0" />
        <mxCell id="KdGeGWF18nJrdaiaW_PN-1" value="" style="ellipse;fillColor=strokeColor;html=1;" vertex="1" parent="1">
          <mxGeometry x="385" y="210" width="30" height="30" as="geometry" />
        </mxCell>
        <mxCell id="KdGeGWF18nJrdaiaW_PN-2" value="" style="endArrow=classic;html=1;rounded=0;exitX=0.5;exitY=1;exitDx=0;exitDy=0;" edge="1" parent="1" source="KdGeGWF18nJrdaiaW_PN-1">
          <mxGeometry width="50" height="50" relative="1" as="geometry">
            <mxPoint x="390" y="460" as="sourcePoint" />
            <mxPoint x="400" y="280" as="targetPoint" />
          </mxGeometry>
        </mxCell>
        <mxCell id="KdGeGWF18nJrdaiaW_PN-3" value="&lt;font style=&quot;font-size: 15px;&quot;&gt;進入主頁面&lt;/font&gt;" style="html=1;align=center;verticalAlign=top;rounded=1;absoluteArcSize=1;arcSize=10;dashed=0;whiteSpace=wrap;" vertex="1" parent="1">
          <mxGeometry x="330" y="280" width="140" height="40" as="geometry" />
        </mxCell>
        <mxCell id="KdGeGWF18nJrdaiaW_PN-4" value="" style="endArrow=classic;html=1;rounded=0;exitX=0.5;exitY=1;exitDx=0;exitDy=0;" edge="1" parent="1">
          <mxGeometry width="50" height="50" relative="1" as="geometry">
            <mxPoint x="400" y="320" as="sourcePoint" />
            <mxPoint x="400" y="360" as="targetPoint" />
          </mxGeometry>
        </mxCell>
        <mxCell id="KdGeGWF18nJrdaiaW_PN-5" value="&lt;font style=&quot;font-size: 15px;&quot;&gt;輸入搜尋關鍵字&lt;/font&gt;" style="html=1;align=center;verticalAlign=top;rounded=1;absoluteArcSize=1;arcSize=10;dashed=0;whiteSpace=wrap;" vertex="1" parent="1">
          <mxGeometry x="330" y="360" width="140" height="40" as="geometry" />
        </mxCell>
        <mxCell id="KdGeGWF18nJrdaiaW_PN-6" value="" style="endArrow=classic;html=1;rounded=0;exitX=0.5;exitY=1;exitDx=0;exitDy=0;" edge="1" parent="1" source="KdGeGWF18nJrdaiaW_PN-5">
          <mxGeometry width="50" height="50" relative="1" as="geometry">
            <mxPoint x="470" y="470" as="sourcePoint" />
            <mxPoint x="400" y="440" as="targetPoint" />
          </mxGeometry>
        </mxCell>
        <mxCell id="KdGeGWF18nJrdaiaW_PN-7" value="" style="rhombus;" vertex="1" parent="1">
          <mxGeometry x="385" y="440" width="30" height="30" as="geometry" />
        </mxCell>
        <mxCell id="KdGeGWF18nJrdaiaW_PN-8" value="" style="endArrow=classic;html=1;rounded=0;exitX=1;exitY=0.5;exitDx=0;exitDy=0;" edge="1" parent="1" source="KdGeGWF18nJrdaiaW_PN-7">
          <mxGeometry width="50" height="50" relative="1" as="geometry">
            <mxPoint x="390" y="510" as="sourcePoint" />
            <mxPoint x="510" y="455" as="targetPoint" />
          </mxGeometry>
        </mxCell>
        <mxCell id="KdGeGWF18nJrdaiaW_PN-9" value="[無符合條件]" style="edgeLabel;html=1;align=center;verticalAlign=middle;resizable=0;points=[];" connectable="0" vertex="1" parent="KdGeGWF18nJrdaiaW_PN-8">
          <mxGeometry x="-0.453" y="2" relative="1" as="geometry">
            <mxPoint x="17" y="2" as="offset" />
          </mxGeometry>
        </mxCell>
        <mxCell id="KdGeGWF18nJrdaiaW_PN-10" value="" style="endArrow=classic;html=1;rounded=0;exitX=0.5;exitY=1;exitDx=0;exitDy=0;" edge="1" parent="1" source="KdGeGWF18nJrdaiaW_PN-7">
          <mxGeometry width="50" height="50" relative="1" as="geometry">
            <mxPoint x="410" y="500" as="sourcePoint" />
            <mxPoint x="400" y="510" as="targetPoint" />
          </mxGeometry>
        </mxCell>
        <mxCell id="KdGeGWF18nJrdaiaW_PN-11" value="[有符合條件]" style="edgeLabel;html=1;align=center;verticalAlign=middle;resizable=0;points=[];" connectable="0" vertex="1" parent="KdGeGWF18nJrdaiaW_PN-10">
          <mxGeometry x="-0.45" y="2" relative="1" as="geometry">
            <mxPoint as="offset" />
          </mxGeometry>
        </mxCell>
        <mxCell id="KdGeGWF18nJrdaiaW_PN-12" value="&lt;font style=&quot;font-size: 15px;&quot;&gt;顯示查無資料&lt;/font&gt;" style="html=1;align=center;verticalAlign=top;rounded=1;absoluteArcSize=1;arcSize=10;dashed=0;whiteSpace=wrap;" vertex="1" parent="1">
          <mxGeometry x="510" y="440" width="140" height="40" as="geometry" />
        </mxCell>
        <mxCell id="KdGeGWF18nJrdaiaW_PN-13" value="&lt;font style=&quot;font-size: 15px;&quot;&gt;顯示搜尋結果&lt;/font&gt;" style="html=1;align=center;verticalAlign=top;rounded=1;absoluteArcSize=1;arcSize=10;dashed=0;whiteSpace=wrap;" vertex="1" parent="1">
          <mxGeometry x="330" y="510" width="140" height="40" as="geometry" />
        </mxCell>
        <mxCell id="KdGeGWF18nJrdaiaW_PN-14" value="" style="endArrow=classic;html=1;rounded=0;exitX=0.5;exitY=1;exitDx=0;exitDy=0;" edge="1" parent="1" source="KdGeGWF18nJrdaiaW_PN-13">
          <mxGeometry width="50" height="50" relative="1" as="geometry">
            <mxPoint x="350" y="470" as="sourcePoint" />
            <mxPoint x="400" y="600" as="targetPoint" />
          </mxGeometry>
        </mxCell>
        <mxCell id="KdGeGWF18nJrdaiaW_PN-15" value="&lt;font style=&quot;font-size: 15px;&quot;&gt;進入商家詳細頁面&lt;/font&gt;" style="html=1;align=center;verticalAlign=top;rounded=1;absoluteArcSize=1;arcSize=10;dashed=0;whiteSpace=wrap;" vertex="1" parent="1">
          <mxGeometry x="330" y="600" width="140" height="40" as="geometry" />
        </mxCell>
        <mxCell id="KdGeGWF18nJrdaiaW_PN-16" value="" style="ellipse;html=1;shape=endState;fillColor=strokeColor;" vertex="1" parent="1">
          <mxGeometry x="565" y="605" width="30" height="30" as="geometry" />
        </mxCell>
        <mxCell id="KdGeGWF18nJrdaiaW_PN-17" value="" style="endArrow=classic;html=1;rounded=0;exitX=1;exitY=0.5;exitDx=0;exitDy=0;entryX=0;entryY=0.5;entryDx=0;entryDy=0;" edge="1" parent="1" source="KdGeGWF18nJrdaiaW_PN-15" target="KdGeGWF18nJrdaiaW_PN-16">
          <mxGeometry width="50" height="50" relative="1" as="geometry">
            <mxPoint x="350" y="550" as="sourcePoint" />
            <mxPoint x="400" y="500" as="targetPoint" />
          </mxGeometry>
        </mxCell>
        <mxCell id="KdGeGWF18nJrdaiaW_PN-18" value="" style="endArrow=classic;html=1;rounded=0;exitX=0.5;exitY=1;exitDx=0;exitDy=0;entryX=0.5;entryY=0;entryDx=0;entryDy=0;" edge="1" parent="1" source="KdGeGWF18nJrdaiaW_PN-12" target="KdGeGWF18nJrdaiaW_PN-16">
          <mxGeometry width="50" height="50" relative="1" as="geometry">
            <mxPoint x="350" y="550" as="sourcePoint" />
            <mxPoint x="580" y="510" as="targetPoint" />
          </mxGeometry>
        </mxCell>
      </root>
    </mxGraphModel>
  </diagram>
  <diagram id="Uw7cSE9XnGp-A8FUUkEJ" name="推薦商家">
    <mxGraphModel grid="1" page="1" gridSize="10" guides="1" tooltips="1" connect="1" arrows="1" fold="1" pageScale="1" pageWidth="827" pageHeight="1169" math="0" shadow="0">
      <root>
        <mxCell id="0" />
        <mxCell id="1" parent="0" />
        <mxCell id="En1Y-GIvClIDQuwyoGxE-1" value="" style="ellipse;fillColor=strokeColor;html=1;" vertex="1" parent="1">
          <mxGeometry x="385" y="210" width="30" height="30" as="geometry" />
        </mxCell>
        <mxCell id="En1Y-GIvClIDQuwyoGxE-2" value="" style="endArrow=classic;html=1;rounded=0;exitX=0.5;exitY=1;exitDx=0;exitDy=0;" edge="1" parent="1" source="En1Y-GIvClIDQuwyoGxE-1">
          <mxGeometry width="50" height="50" relative="1" as="geometry">
            <mxPoint x="390" y="460" as="sourcePoint" />
            <mxPoint x="400" y="280" as="targetPoint" />
          </mxGeometry>
        </mxCell>
        <mxCell id="En1Y-GIvClIDQuwyoGxE-3" value="&lt;font style=&quot;font-size: 15px;&quot;&gt;進入主頁面&lt;/font&gt;" style="html=1;align=center;verticalAlign=top;rounded=1;absoluteArcSize=1;arcSize=10;dashed=0;whiteSpace=wrap;" vertex="1" parent="1">
          <mxGeometry x="330" y="280" width="140" height="40" as="geometry" />
        </mxCell>
        <mxCell id="En1Y-GIvClIDQuwyoGxE-4" value="" style="endArrow=classic;html=1;rounded=0;exitX=0.5;exitY=1;exitDx=0;exitDy=0;" edge="1" parent="1">
          <mxGeometry width="50" height="50" relative="1" as="geometry">
            <mxPoint x="400" y="320" as="sourcePoint" />
            <mxPoint x="400" y="360" as="targetPoint" />
          </mxGeometry>
        </mxCell>
        <mxCell id="En1Y-GIvClIDQuwyoGxE-5" value="&lt;font style=&quot;font-size: 15px;&quot;&gt;選擇推薦&lt;/font&gt;&lt;span style=&quot;font-size: 15px;&quot;&gt;類型&lt;/span&gt;" style="html=1;align=center;verticalAlign=top;rounded=1;absoluteArcSize=1;arcSize=10;dashed=0;whiteSpace=wrap;" vertex="1" parent="1">
          <mxGeometry x="330" y="360" width="140" height="40" as="geometry" />
        </mxCell>
        <mxCell id="En1Y-GIvClIDQuwyoGxE-6" value="" style="endArrow=classic;html=1;rounded=0;exitX=0.5;exitY=1;exitDx=0;exitDy=0;" edge="1" parent="1" source="En1Y-GIvClIDQuwyoGxE-5">
          <mxGeometry width="50" height="50" relative="1" as="geometry">
            <mxPoint x="470" y="470" as="sourcePoint" />
            <mxPoint x="400" y="440" as="targetPoint" />
          </mxGeometry>
        </mxCell>
        <mxCell id="En1Y-GIvClIDQuwyoGxE-7" value="" style="rhombus;" vertex="1" parent="1">
          <mxGeometry x="385" y="440" width="30" height="30" as="geometry" />
        </mxCell>
        <mxCell id="En1Y-GIvClIDQuwyoGxE-8" value="" style="endArrow=classic;html=1;rounded=0;exitX=0.5;exitY=1;exitDx=0;exitDy=0;" edge="1" parent="1" source="En1Y-GIvClIDQuwyoGxE-7">
          <mxGeometry width="50" height="50" relative="1" as="geometry">
            <mxPoint x="390" y="510" as="sourcePoint" />
            <mxPoint x="400" y="520" as="targetPoint" />
          </mxGeometry>
        </mxCell>
        <mxCell id="En1Y-GIvClIDQuwyoGxE-9" value="選擇熱門推薦" style="edgeLabel;html=1;align=center;verticalAlign=middle;resizable=0;points=[];" connectable="0" vertex="1" parent="En1Y-GIvClIDQuwyoGxE-8">
          <mxGeometry x="-0.453" y="2" relative="1" as="geometry">
            <mxPoint x="-2" y="2" as="offset" />
          </mxGeometry>
        </mxCell>
        <mxCell id="En1Y-GIvClIDQuwyoGxE-10" value="&lt;font style=&quot;font-size: 15px;&quot;&gt;顯示熱門推薦商家&lt;/font&gt;" style="html=1;align=center;verticalAlign=top;rounded=1;absoluteArcSize=1;arcSize=10;dashed=0;whiteSpace=wrap;" vertex="1" parent="1">
          <mxGeometry x="330" y="520" width="140" height="40" as="geometry" />
        </mxCell>
        <mxCell id="En1Y-GIvClIDQuwyoGxE-11" value="" style="ellipse;html=1;shape=endState;fillColor=strokeColor;" vertex="1" parent="1">
          <mxGeometry x="384" y="820" width="30" height="30" as="geometry" />
        </mxCell>
        <mxCell id="En1Y-GIvClIDQuwyoGxE-12" value="" style="endArrow=classic;html=1;rounded=0;exitX=0;exitY=0.5;exitDx=0;exitDy=0;" edge="1" parent="1" source="En1Y-GIvClIDQuwyoGxE-7">
          <mxGeometry width="50" height="50" relative="1" as="geometry">
            <mxPoint x="290" y="455" as="sourcePoint" />
            <mxPoint x="290" y="455" as="targetPoint" />
          </mxGeometry>
        </mxCell>
        <mxCell id="En1Y-GIvClIDQuwyoGxE-13" value="選擇隨機推薦" style="edgeLabel;html=1;align=center;verticalAlign=middle;resizable=0;points=[];" connectable="0" vertex="1" parent="En1Y-GIvClIDQuwyoGxE-12">
          <mxGeometry x="-0.453" y="2" relative="1" as="geometry">
            <mxPoint x="-19" y="-2" as="offset" />
          </mxGeometry>
        </mxCell>
        <mxCell id="En1Y-GIvClIDQuwyoGxE-14" value="&lt;font style=&quot;font-size: 15px;&quot;&gt;顯示隨機商家&lt;/font&gt;" style="html=1;align=center;verticalAlign=top;rounded=1;absoluteArcSize=1;arcSize=10;dashed=0;whiteSpace=wrap;" vertex="1" parent="1">
          <mxGeometry x="150" y="440" width="140" height="40" as="geometry" />
        </mxCell>
        <mxCell id="En1Y-GIvClIDQuwyoGxE-15" value="&lt;font style=&quot;font-size: 15px;&quot;&gt;判斷是否登入&lt;/font&gt;" style="html=1;align=center;verticalAlign=top;rounded=1;absoluteArcSize=1;arcSize=10;dashed=0;whiteSpace=wrap;" vertex="1" parent="1">
          <mxGeometry x="520" y="440" width="140" height="40" as="geometry" />
        </mxCell>
        <mxCell id="En1Y-GIvClIDQuwyoGxE-16" value="" style="endArrow=classic;html=1;rounded=0;exitX=0.5;exitY=1;exitDx=0;exitDy=0;" edge="1" parent="1">
          <mxGeometry width="50" height="50" relative="1" as="geometry">
            <mxPoint x="590" y="480" as="sourcePoint" />
            <mxPoint x="590" y="520" as="targetPoint" />
          </mxGeometry>
        </mxCell>
        <mxCell id="En1Y-GIvClIDQuwyoGxE-17" value="" style="rhombus;" vertex="1" parent="1">
          <mxGeometry x="575" y="520" width="30" height="30" as="geometry" />
        </mxCell>
        <mxCell id="En1Y-GIvClIDQuwyoGxE-18" value="" style="endArrow=classic;html=1;rounded=0;exitX=0.5;exitY=1;exitDx=0;exitDy=0;" edge="1" parent="1" source="En1Y-GIvClIDQuwyoGxE-17">
          <mxGeometry width="50" height="50" relative="1" as="geometry">
            <mxPoint x="600" y="580" as="sourcePoint" />
            <mxPoint x="590" y="590" as="targetPoint" />
          </mxGeometry>
        </mxCell>
        <mxCell id="En1Y-GIvClIDQuwyoGxE-19" value="[已登入]" style="edgeLabel;html=1;align=center;verticalAlign=middle;resizable=0;points=[];" connectable="0" vertex="1" parent="En1Y-GIvClIDQuwyoGxE-18">
          <mxGeometry x="-0.45" y="2" relative="1" as="geometry">
            <mxPoint as="offset" />
          </mxGeometry>
        </mxCell>
        <mxCell id="En1Y-GIvClIDQuwyoGxE-20" value="" style="endArrow=classic;html=1;rounded=0;exitX=1;exitY=0.5;exitDx=0;exitDy=0;" edge="1" parent="1">
          <mxGeometry width="50" height="50" relative="1" as="geometry">
            <mxPoint x="605" y="534.66" as="sourcePoint" />
            <mxPoint x="700" y="534.66" as="targetPoint" />
          </mxGeometry>
        </mxCell>
        <mxCell id="En1Y-GIvClIDQuwyoGxE-21" value="[未登入]" style="edgeLabel;html=1;align=center;verticalAlign=middle;resizable=0;points=[];" connectable="0" vertex="1" parent="En1Y-GIvClIDQuwyoGxE-20">
          <mxGeometry x="-0.453" y="2" relative="1" as="geometry">
            <mxPoint x="17" y="2" as="offset" />
          </mxGeometry>
        </mxCell>
        <mxCell id="En1Y-GIvClIDQuwyoGxE-22" value="&lt;font style=&quot;font-size: 15px;&quot;&gt;顯示偏好推薦商家&lt;/font&gt;" style="html=1;align=center;verticalAlign=top;rounded=1;absoluteArcSize=1;arcSize=10;dashed=0;whiteSpace=wrap;" vertex="1" parent="1">
          <mxGeometry x="520" y="590" width="140" height="40" as="geometry" />
        </mxCell>
        <mxCell id="En1Y-GIvClIDQuwyoGxE-23" value="&lt;font style=&quot;font-size: 15px;&quot;&gt;顯示未登入&lt;/font&gt;" style="html=1;align=center;verticalAlign=top;rounded=1;absoluteArcSize=1;arcSize=10;dashed=0;whiteSpace=wrap;" vertex="1" parent="1">
          <mxGeometry x="700" y="520" width="140" height="40" as="geometry" />
        </mxCell>
        <mxCell id="En1Y-GIvClIDQuwyoGxE-24" value="" style="endArrow=classic;html=1;rounded=0;" edge="1" parent="1">
          <mxGeometry width="50" height="50" relative="1" as="geometry">
            <mxPoint x="400" y="780" as="sourcePoint" />
            <mxPoint x="399.66" y="820" as="targetPoint" />
          </mxGeometry>
        </mxCell>
        <mxCell id="En1Y-GIvClIDQuwyoGxE-25" value="" style="endArrow=classic;html=1;rounded=0;exitX=0.5;exitY=1;exitDx=0;exitDy=0;" edge="1" parent="1">
          <mxGeometry width="50" height="50" relative="1" as="geometry">
            <mxPoint x="415" y="454.49" as="sourcePoint" />
            <mxPoint x="520" y="454" as="targetPoint" />
          </mxGeometry>
        </mxCell>
        <mxCell id="En1Y-GIvClIDQuwyoGxE-26" value="選擇偏好推薦" style="edgeLabel;html=1;align=center;verticalAlign=middle;resizable=0;points=[];" connectable="0" vertex="1" parent="En1Y-GIvClIDQuwyoGxE-25">
          <mxGeometry x="-0.453" y="2" relative="1" as="geometry">
            <mxPoint x="17" y="2" as="offset" />
          </mxGeometry>
        </mxCell>
        <mxCell id="En1Y-GIvClIDQuwyoGxE-27" value="&lt;font style=&quot;font-size: 15px;&quot;&gt;進入商家詳細頁面&lt;/font&gt;" style="html=1;align=center;verticalAlign=top;rounded=1;absoluteArcSize=1;arcSize=10;dashed=0;whiteSpace=wrap;" vertex="1" parent="1">
          <mxGeometry x="330" y="740" width="140" height="40" as="geometry" />
        </mxCell>
        <mxCell id="En1Y-GIvClIDQuwyoGxE-28" value="" style="endArrow=classic;html=1;rounded=0;exitX=0.5;exitY=1;exitDx=0;exitDy=0;entryX=0.5;entryY=0;entryDx=0;entryDy=0;" edge="1" parent="1" source="En1Y-GIvClIDQuwyoGxE-10" target="En1Y-GIvClIDQuwyoGxE-27">
          <mxGeometry width="50" height="50" relative="1" as="geometry">
            <mxPoint x="320" y="710" as="sourcePoint" />
            <mxPoint x="370" y="660" as="targetPoint" />
          </mxGeometry>
        </mxCell>
        <mxCell id="En1Y-GIvClIDQuwyoGxE-29" value="" style="endArrow=classic;html=1;rounded=0;exitX=0.5;exitY=1;exitDx=0;exitDy=0;entryX=0;entryY=0.5;entryDx=0;entryDy=0;" edge="1" parent="1" source="En1Y-GIvClIDQuwyoGxE-14" target="En1Y-GIvClIDQuwyoGxE-27">
          <mxGeometry width="50" height="50" relative="1" as="geometry">
            <mxPoint x="320" y="710" as="sourcePoint" />
            <mxPoint x="370" y="660" as="targetPoint" />
            <Array as="points">
              <mxPoint x="220" y="760" />
            </Array>
          </mxGeometry>
        </mxCell>
        <mxCell id="En1Y-GIvClIDQuwyoGxE-30" value="" style="endArrow=classic;html=1;rounded=0;entryX=1;entryY=0.5;entryDx=0;entryDy=0;exitX=0.5;exitY=1;exitDx=0;exitDy=0;" edge="1" parent="1" source="En1Y-GIvClIDQuwyoGxE-22" target="En1Y-GIvClIDQuwyoGxE-27">
          <mxGeometry width="50" height="50" relative="1" as="geometry">
            <mxPoint x="320" y="710" as="sourcePoint" />
            <mxPoint x="370" y="660" as="targetPoint" />
            <Array as="points">
              <mxPoint x="590" y="760" />
            </Array>
          </mxGeometry>
        </mxCell>
        <mxCell id="En1Y-GIvClIDQuwyoGxE-31" value="" style="endArrow=classic;html=1;rounded=0;exitX=1;exitY=0.5;exitDx=0;exitDy=0;entryX=0.5;entryY=0;entryDx=0;entryDy=0;" edge="1" parent="1" source="En1Y-GIvClIDQuwyoGxE-23" target="En1Y-GIvClIDQuwyoGxE-32">
          <mxGeometry width="50" height="50" relative="1" as="geometry">
            <mxPoint x="640" y="640" as="sourcePoint" />
            <mxPoint x="770" y="600" as="targetPoint" />
            <Array as="points">
              <mxPoint x="910" y="540" />
            </Array>
          </mxGeometry>
        </mxCell>
        <mxCell id="En1Y-GIvClIDQuwyoGxE-32" value="&lt;span style=&quot;font-size: 15px;&quot;&gt;選擇是否登入&lt;/span&gt;" style="html=1;align=center;verticalAlign=top;rounded=1;absoluteArcSize=1;arcSize=10;dashed=0;whiteSpace=wrap;" vertex="1" parent="1">
          <mxGeometry x="840" y="590" width="140" height="40" as="geometry" />
        </mxCell>
        <mxCell id="En1Y-GIvClIDQuwyoGxE-33" value="" style="rhombus;" vertex="1" parent="1">
          <mxGeometry x="895" y="670" width="30" height="30" as="geometry" />
        </mxCell>
        <mxCell id="En1Y-GIvClIDQuwyoGxE-34" value="" style="endArrow=classic;html=1;rounded=0;exitX=0.5;exitY=1;exitDx=0;exitDy=0;entryX=0.5;entryY=0;entryDx=0;entryDy=0;" edge="1" parent="1" source="En1Y-GIvClIDQuwyoGxE-32" target="En1Y-GIvClIDQuwyoGxE-33">
          <mxGeometry width="50" height="50" relative="1" as="geometry">
            <mxPoint x="800" y="640" as="sourcePoint" />
            <mxPoint x="850" y="590" as="targetPoint" />
          </mxGeometry>
        </mxCell>
        <mxCell id="En1Y-GIvClIDQuwyoGxE-35" value="" style="endArrow=classic;html=1;rounded=0;exitX=0;exitY=0.5;exitDx=0;exitDy=0;entryX=1;entryY=0.5;entryDx=0;entryDy=0;" edge="1" parent="1" source="En1Y-GIvClIDQuwyoGxE-33" target="En1Y-GIvClIDQuwyoGxE-22">
          <mxGeometry width="50" height="50" relative="1" as="geometry">
            <mxPoint x="800" y="640" as="sourcePoint" />
            <mxPoint x="850" y="590" as="targetPoint" />
            <Array as="points">
              <mxPoint x="770" y="685" />
              <mxPoint x="770" y="610" />
            </Array>
          </mxGeometry>
        </mxCell>
        <mxCell id="En1Y-GIvClIDQuwyoGxE-36" value="選擇登入" style="edgeLabel;html=1;align=center;verticalAlign=middle;resizable=0;points=[];" connectable="0" vertex="1" parent="En1Y-GIvClIDQuwyoGxE-35">
          <mxGeometry x="-0.6539" y="1" relative="1" as="geometry">
            <mxPoint as="offset" />
          </mxGeometry>
        </mxCell>
        <mxCell id="En1Y-GIvClIDQuwyoGxE-37" value="&lt;span style=&quot;font-size: 15px;&quot;&gt;顯示查無資料&lt;/span&gt;" style="html=1;align=center;verticalAlign=top;rounded=1;absoluteArcSize=1;arcSize=10;dashed=0;whiteSpace=wrap;" vertex="1" parent="1">
          <mxGeometry x="840" y="770" width="140" height="40" as="geometry" />
        </mxCell>
        <mxCell id="En1Y-GIvClIDQuwyoGxE-38" value="" style="endArrow=classic;html=1;rounded=0;exitX=0.5;exitY=1;exitDx=0;exitDy=0;entryX=0.5;entryY=0;entryDx=0;entryDy=0;" edge="1" parent="1" source="En1Y-GIvClIDQuwyoGxE-33" target="En1Y-GIvClIDQuwyoGxE-37">
          <mxGeometry width="50" height="50" relative="1" as="geometry">
            <mxPoint x="860" y="700" as="sourcePoint" />
            <mxPoint x="910" y="650" as="targetPoint" />
            <Array as="points">
              <mxPoint x="910" y="770" />
            </Array>
          </mxGeometry>
        </mxCell>
        <mxCell id="En1Y-GIvClIDQuwyoGxE-39" value="選擇不登入" style="edgeLabel;html=1;align=center;verticalAlign=middle;resizable=0;points=[];" connectable="0" vertex="1" parent="En1Y-GIvClIDQuwyoGxE-38">
          <mxGeometry x="-0.6799" y="1" relative="1" as="geometry">
            <mxPoint x="-1" y="19" as="offset" />
          </mxGeometry>
        </mxCell>
        <mxCell id="En1Y-GIvClIDQuwyoGxE-40" value="" style="endArrow=classic;html=1;rounded=0;exitX=0;exitY=0.5;exitDx=0;exitDy=0;entryX=1;entryY=0.5;entryDx=0;entryDy=0;" edge="1" parent="1" source="En1Y-GIvClIDQuwyoGxE-37" target="En1Y-GIvClIDQuwyoGxE-11">
          <mxGeometry width="50" height="50" relative="1" as="geometry">
            <mxPoint x="550" y="700" as="sourcePoint" />
            <mxPoint x="600" y="650" as="targetPoint" />
            <Array as="points">
              <mxPoint x="720" y="790" />
              <mxPoint x="720" y="835" />
            </Array>
          </mxGeometry>
        </mxCell>
      </root>
    </mxGraphModel>
  </diagram>
  <diagram id="5ajNeU1waAZexLdd5R0A" name="詞語分析">
    <mxGraphModel grid="1" page="1" gridSize="10" guides="1" tooltips="1" connect="1" arrows="1" fold="1" pageScale="1" pageWidth="827" pageHeight="1169" math="0" shadow="0">
      <root>
        <mxCell id="0" />
        <mxCell id="1" parent="0" />
        <mxCell id="jn2vyqlbRZd5nzDgQEBq-1" value="" style="ellipse;fillColor=strokeColor;html=1;" vertex="1" parent="1">
          <mxGeometry x="385" y="210" width="30" height="30" as="geometry" />
        </mxCell>
        <mxCell id="jn2vyqlbRZd5nzDgQEBq-2" value="" style="endArrow=classic;html=1;rounded=0;exitX=0.5;exitY=1;exitDx=0;exitDy=0;" edge="1" parent="1" source="jn2vyqlbRZd5nzDgQEBq-1">
          <mxGeometry width="50" height="50" relative="1" as="geometry">
            <mxPoint x="390" y="460" as="sourcePoint" />
            <mxPoint x="400" y="280" as="targetPoint" />
          </mxGeometry>
        </mxCell>
        <mxCell id="jn2vyqlbRZd5nzDgQEBq-3" value="&lt;font style=&quot;font-size: 15px;&quot;&gt;執行爬蟲程式&lt;/font&gt;" style="html=1;align=center;verticalAlign=top;rounded=1;absoluteArcSize=1;arcSize=10;dashed=0;whiteSpace=wrap;" vertex="1" parent="1">
          <mxGeometry x="330" y="280" width="140" height="40" as="geometry" />
        </mxCell>
        <mxCell id="jn2vyqlbRZd5nzDgQEBq-4" value="" style="endArrow=classic;html=1;rounded=0;exitX=0.5;exitY=1;exitDx=0;exitDy=0;" edge="1" parent="1">
          <mxGeometry width="50" height="50" relative="1" as="geometry">
            <mxPoint x="400" y="320" as="sourcePoint" />
            <mxPoint x="400" y="360" as="targetPoint" />
          </mxGeometry>
        </mxCell>
        <mxCell id="jn2vyqlbRZd5nzDgQEBq-5" value="" style="ellipse;html=1;shape=endState;fillColor=strokeColor;" vertex="1" parent="1">
          <mxGeometry x="385" y="750" width="30" height="30" as="geometry" />
        </mxCell>
        <mxCell id="jn2vyqlbRZd5nzDgQEBq-6" value="&lt;font style=&quot;font-size: 15px;&quot;&gt;評論分析&lt;/font&gt;" style="html=1;align=center;verticalAlign=top;rounded=1;absoluteArcSize=1;arcSize=10;dashed=0;whiteSpace=wrap;" vertex="1" parent="1">
          <mxGeometry x="330" y="360" width="140" height="40" as="geometry" />
        </mxCell>
        <mxCell id="jn2vyqlbRZd5nzDgQEBq-7" value="" style="endArrow=classic;html=1;rounded=0;exitX=0.5;exitY=1;exitDx=0;exitDy=0;" edge="1" parent="1">
          <mxGeometry width="50" height="50" relative="1" as="geometry">
            <mxPoint x="400" y="400" as="sourcePoint" />
            <mxPoint x="400" y="440" as="targetPoint" />
          </mxGeometry>
        </mxCell>
        <mxCell id="jn2vyqlbRZd5nzDgQEBq-8" value="&lt;span style=&quot;font-size: 15px;&quot;&gt;劃分詞性立場&lt;/span&gt;" style="html=1;align=center;verticalAlign=top;rounded=1;absoluteArcSize=1;arcSize=10;dashed=0;whiteSpace=wrap;" vertex="1" parent="1">
          <mxGeometry x="330" y="520" width="140" height="40" as="geometry" />
        </mxCell>
        <mxCell id="jn2vyqlbRZd5nzDgQEBq-9" value="" style="endArrow=classic;html=1;rounded=0;entryX=0.5;entryY=0;entryDx=0;entryDy=0;exitX=0.5;exitY=1;exitDx=0;exitDy=0;" edge="1" parent="1" target="jn2vyqlbRZd5nzDgQEBq-5">
          <mxGeometry width="50" height="50" relative="1" as="geometry">
            <mxPoint x="400" y="720" as="sourcePoint" />
            <mxPoint x="410" y="720" as="targetPoint" />
          </mxGeometry>
        </mxCell>
        <mxCell id="jn2vyqlbRZd5nzDgQEBq-10" value="&lt;span style=&quot;font-size: 15px;&quot;&gt;斷詞、形容詞提取&lt;/span&gt;" style="html=1;align=center;verticalAlign=top;rounded=1;absoluteArcSize=1;arcSize=10;dashed=0;whiteSpace=wrap;" vertex="1" parent="1">
          <mxGeometry x="330" y="440" width="140" height="40" as="geometry" />
        </mxCell>
        <mxCell id="jn2vyqlbRZd5nzDgQEBq-11" value="&lt;font style=&quot;font-size: 15px;&quot;&gt;計算指標分數&lt;/font&gt;" style="html=1;align=center;verticalAlign=top;rounded=1;absoluteArcSize=1;arcSize=10;dashed=0;whiteSpace=wrap;" vertex="1" parent="1">
          <mxGeometry x="330" y="600" width="140" height="40" as="geometry" />
        </mxCell>
        <mxCell id="jn2vyqlbRZd5nzDgQEBq-12" value="" style="endArrow=classic;html=1;rounded=0;exitX=0.5;exitY=1;exitDx=0;exitDy=0;" edge="1" parent="1">
          <mxGeometry width="50" height="50" relative="1" as="geometry">
            <mxPoint x="399.58" y="480" as="sourcePoint" />
            <mxPoint x="399.58" y="520" as="targetPoint" />
          </mxGeometry>
        </mxCell>
        <mxCell id="jn2vyqlbRZd5nzDgQEBq-13" value="" style="endArrow=classic;html=1;rounded=0;exitX=0.5;exitY=1;exitDx=0;exitDy=0;" edge="1" parent="1">
          <mxGeometry width="50" height="50" relative="1" as="geometry">
            <mxPoint x="399.58" y="560" as="sourcePoint" />
            <mxPoint x="399.58" y="600" as="targetPoint" />
          </mxGeometry>
        </mxCell>
        <mxCell id="jn2vyqlbRZd5nzDgQEBq-14" value="" style="endArrow=classic;html=1;rounded=0;exitX=0.5;exitY=1;exitDx=0;exitDy=0;" edge="1" parent="1">
          <mxGeometry width="50" height="50" relative="1" as="geometry">
            <mxPoint x="399.58" y="640" as="sourcePoint" />
            <mxPoint x="399.58" y="680" as="targetPoint" />
          </mxGeometry>
        </mxCell>
        <mxCell id="jn2vyqlbRZd5nzDgQEBq-15" value="&lt;font style=&quot;font-size: 15px;&quot;&gt;計算綜合分數&lt;/font&gt;" style="html=1;align=center;verticalAlign=top;rounded=1;absoluteArcSize=1;arcSize=10;dashed=0;whiteSpace=wrap;" vertex="1" parent="1">
          <mxGeometry x="330" y="680" width="140" height="40" as="geometry" />
        </mxCell>
      </root>
    </mxGraphModel>
  </diagram>
</mxfile>
